<?xml version="1.0" encoding="iso-8859-1"?>
<!-- Generator: Adobe Illustrator 19.0.0, SVG Export Plug-In . SVG Version: 6.00 Build 0)  -->
<svg version="1.1" id="Capa_1" xmlns="http://www.w3.org/2000/svg" xmlns:xlink="http://www.w3.org/1999/xlink" x="0px" y="0px"
	 viewBox="0 0 511.972 511.972" style="enable-background:new 0 0 511.972 511.972;" xml:space="preserve">
<g>
	<g>
		<path d="M199.989,503.973H183.99c-2.211,0-4,1.788-4,3.999s1.789,4,4,4h15.999c2.211,0,4-1.789,4-4S202.2,503.973,199.989,503.973
			z"/>
	</g>
</g>
<g>
	<g>
		<path d="M159.991,423.977c-2.211,0-4,1.789-4,4v55.997c0,2.211,1.789,4,4,4s4-1.789,4-4v-55.997
			C163.991,425.766,162.202,423.977,159.991,423.977z"/>
	</g>
</g>
<g>
	<g>
		<path d="M175.99,423.977c-2.211,0-4,1.789-4,4v55.997c0,2.211,1.789,4,4,4s4-1.789,4-4v-55.997
			C179.99,425.766,178.2,423.977,175.99,423.977z"/>
	</g>
</g>
<g>
	<g>
		<path d="M183.99,503.973c-11.031,0-19.999-8.969-19.999-19.999c0-2.211-1.789-4-4-4s-4,1.789-4,4
			c0,15.436,12.562,27.998,27.999,27.998c2.211,0,4-1.789,4-4S186.201,503.973,183.99,503.973z"/>
	</g>
</g>
<g>
	<g>
		<path d="M183.99,487.974c-2.203,0-4-1.797-4-4c0-2.211-1.79-4-4-4c-2.211,0-4,1.789-4,4c0,6.617,5.383,11.999,12,11.999
			c2.211,0,4-1.789,4-4C187.99,489.763,186.201,487.974,183.99,487.974z"/>
	</g>
</g>
<g>
	<g>
		<path d="M351.981,423.977c-2.211,0-4,1.789-4,4v55.997c0,2.211,1.789,4,4,4s3.999-1.789,3.999-4v-55.997
			C355.98,425.766,354.192,423.977,351.981,423.977z"/>
	</g>
</g>
<g>
	<g>
		<path d="M335.982,423.977c-2.211,0-4,1.789-4,4v55.997c0,2.211,1.789,4,4,4s4-1.789,4-4v-55.997
			C339.982,425.766,338.193,423.977,335.982,423.977z"/>
	</g>
</g>
<g>
	<g>
		<path d="M394.134,424.61c-1.835-1.195-4.327-0.664-5.522,1.211l-23.733,37.045c-1.195,1.859-0.648,4.328,1.211,5.523
			c0.664,0.429,1.414,0.632,2.156,0.632c1.312,0,2.601-0.647,3.367-1.843l23.732-37.045
			C396.54,428.274,395.993,425.805,394.134,424.61z"/>
	</g>
</g>
<g>
	<g>
		<path d="M375.144,424.61c-1.843-1.195-4.32-0.664-5.523,1.211l-5.375,8.39c-1.195,1.859-0.648,4.328,1.211,5.523
			c0.664,0.43,1.414,0.633,2.156,0.633c1.312,0,2.602-0.649,3.367-1.844l5.375-8.39C377.549,428.274,377.003,425.805,375.144,424.61
			z"/>
	</g>
</g>
<g>
	<g>
		<path d="M147.093,462.866l-23.733-37.045c-1.203-1.875-3.687-2.406-5.523-1.211c-1.859,1.195-2.406,3.664-1.211,5.523
			l23.733,37.045c0.765,1.196,2.055,1.843,3.367,1.843c0.742,0,1.492-0.203,2.156-0.632
			C147.741,467.194,148.288,464.725,147.093,462.866z"/>
	</g>
</g>
<g>
	<g>
		<path d="M147.726,434.211l-5.375-8.39c-1.203-1.875-3.687-2.406-5.523-1.211c-1.859,1.195-2.406,3.664-1.211,5.523l5.375,8.39
			c0.765,1.196,2.055,1.844,3.367,1.844c0.742,0,1.492-0.203,2.156-0.633C148.374,438.539,148.921,436.07,147.726,434.211z"/>
	</g>
</g>
<g>
	<g>
		<path d="M351.981,479.974c-2.211,0-4,1.789-4,4c0,11.03-8.968,19.999-19.999,19.999c-2.211,0-4,1.788-4,3.999s1.789,4,4,4
			c15.437,0,27.998-12.561,27.998-27.998C355.98,481.763,354.192,479.974,351.981,479.974z"/>
	</g>
</g>
<g>
	<g>
		<path d="M335.982,479.974c-2.211,0-4,1.789-4,4c0,2.203-1.797,4-4,4c-2.211,0-4,1.789-4,3.999c0,2.211,1.789,4,4,4
			c6.617,0,12-5.382,12-11.999C339.982,481.763,338.193,479.974,335.982,479.974z"/>
	</g>
</g>
<g>
	<g>
		<path d="M199.989,487.974H183.99c-2.211,0-4,1.789-4,3.999c0,2.211,1.789,4,4,4h15.999c2.211,0,4-1.789,4-4
			C203.989,489.763,202.2,487.974,199.989,487.974z"/>
	</g>
</g>
<g>
	<g>
		<path d="M407.978,0H103.994c-19.85,0-35.998,16.147-35.998,35.998v303.984c0,19.85,16.148,35.998,35.998,35.998h303.984
			c19.85,0,35.998-16.148,35.998-35.998V35.998C443.976,16.147,427.828,0,407.978,0z M435.976,339.982
			c0,15.436-12.561,27.998-27.998,27.998H103.994c-15.436,0-27.998-12.561-27.998-27.998V35.998C75.996,20.562,88.557,8,103.994,8
			h303.984c15.436,0,27.998,12.561,27.998,27.998V339.982z"/>
	</g>
</g>
<g>
	<g>
		<path d="M439.976,375.98c-2.211,0-4,1.789-4,4c0,15.436-12.561,27.998-27.998,27.998H103.994
			c-15.436,0-27.998-12.562-27.998-27.998c0-2.211-1.789-4-4-4s-4,1.789-4,4c0,19.85,16.148,35.998,35.998,35.998h303.984
			c19.85,0,35.998-16.148,35.998-35.998C443.976,377.769,442.187,375.98,439.976,375.98z"/>
	</g>
</g>
<g>
	<g>
		<path d="M71.996,367.98c-2.211,0-4,1.789-4,4v8c0,2.21,1.789,3.999,4,3.999s4-1.789,4-3.999v-8
			C75.996,369.769,74.207,367.98,71.996,367.98z"/>
	</g>
</g>
<g>
	<g>
		<path d="M439.976,367.98c-2.211,0-4,1.789-4,4v8c0,2.21,1.789,3.999,4,3.999s4-1.789,4-3.999v-8
			C443.976,369.769,442.187,367.98,439.976,367.98z"/>
	</g>
</g>
<g>
	<g>
		<path d="M295.984,439.976h-79.996c-2.211,0-4,1.789-4,4v63.989c0,2.211,1.789,4,4,4h79.996c2.211,0,4-1.79,4-4.001v-63.988
			C299.984,441.765,298.195,439.976,295.984,439.976z M291.984,503.965h-71.996v-55.989h71.996V503.965z"/>
	</g>
</g>
<g>
	<g>
		<path d="M327.982,487.974h-15.999c-2.211,0-4,1.789-4,3.999c0,2.211,1.789,4,4,4h15.999c2.211,0,4-1.789,4-4
			C331.982,489.763,330.193,487.974,327.982,487.974z"/>
	</g>
</g>
<g>
	<g>
		<path d="M327.982,503.973h-15.999c-2.211,0-4,1.788-4,3.999s1.789,4,4,4h15.999c2.211,0,4-1.789,4-4
			S330.193,503.973,327.982,503.973z"/>
	</g>
</g>
<g>
	<g>
		<path d="M143.992,367.98c-2.211,0-4,1.789-4,4v15.999c0,2.211,1.789,4,4,4s4-1.789,4-4V371.98
			C147.992,369.769,146.203,367.98,143.992,367.98z"/>
	</g>
</g>
<g>
	<g>
		<path d="M199.989,367.98c-2.211,0-4,1.789-4,4v15.999c0,2.211,1.789,4,4,4s4-1.789,4-4V371.98
			C203.989,369.769,202.2,367.98,199.989,367.98z"/>
	</g>
</g>
<g>
	<g>
		<path d="M255.986,367.98c-2.211,0-4,1.789-4,4v15.999c0,2.211,1.789,4,4,4s4-1.789,4-4V371.98
			C259.986,369.769,258.197,367.98,255.986,367.98z"/>
	</g>
</g>
<g>
	<g>
		<path d="M311.983,367.98c-2.211,0-4,1.789-4,4v15.999c0,2.211,1.789,4,4,4s4-1.789,4-4V371.98
			C315.983,369.769,314.194,367.98,311.983,367.98z"/>
	</g>
</g>
<g>
	<g>
		<path d="M367.98,367.98c-2.211,0-4,1.789-4,4v15.999c0,2.211,1.789,4,4,4s4-1.789,4-4V371.98
			C371.98,369.769,370.191,367.98,367.98,367.98z"/>
	</g>
</g>
<g>
	<g>
		<path d="M255.986,15.999c-94.839,0-171.991,77.156-171.991,171.991c0,94.839,77.152,171.99,171.991,171.99
			s171.99-77.151,171.99-171.99C427.976,93.155,350.825,15.999,255.986,15.999z M255.986,351.981
			c-90.425,0-163.991-73.566-163.991-163.991S165.561,23.999,255.986,23.999S419.977,97.565,419.977,187.99
			S346.411,351.981,255.986,351.981z"/>
	</g>
</g>
<g>
	<g>
		<path d="M255.986,135.993c-28.67,0-51.997,23.327-51.997,51.997c0,28.67,23.327,51.997,51.997,51.997
			c28.67,0,51.997-23.327,51.997-51.997C307.983,159.32,284.656,135.993,255.986,135.993z M255.986,231.988
			c-24.257,0-43.998-19.737-43.998-43.998c0-24.261,19.741-43.998,43.998-43.998s43.998,19.737,43.998,43.998
			C299.984,212.251,280.243,231.988,255.986,231.988z"/>
	</g>
</g>
<g>
	<g>
		<path d="M399.978,31.998c-6.617,0-11.999,5.383-11.999,12s5.382,11.999,11.999,11.999s12-5.383,12-11.999
			C411.978,37.38,406.595,31.998,399.978,31.998z M399.978,47.998c-2.203,0-4-1.793-4-4c0-2.207,1.797-4,4-4s4,1.793,4,4
			C403.978,46.205,402.181,47.998,399.978,47.998z"/>
	</g>
</g>
<g>
	<g>
		<path d="M399.978,319.983c-6.617,0-11.999,5.382-11.999,11.999s5.382,12,11.999,12s12-5.383,12-12
			S406.595,319.983,399.978,319.983z M399.978,335.982c-2.203,0-4-1.797-4-4s1.797-4,4-4s4,1.797,4,4
			S402.181,335.982,399.978,335.982z"/>
	</g>
</g>
<g>
	<g>
		<path d="M103.994,319.983c-6.616,0-11.999,5.382-11.999,11.999s5.383,12,11.999,12c6.617,0,12-5.383,12-12
			S110.611,319.983,103.994,319.983z M103.994,335.982c-2.203,0-4-1.797-4-4s1.797-4,4-4s4,1.797,4,4
			S106.197,335.982,103.994,335.982z"/>
	</g>
</g>
<g>
	<g>
		<path d="M103.994,31.998c-6.616,0-11.999,5.383-11.999,12s5.383,11.999,11.999,11.999c6.617,0,12-5.383,12-11.999
			C115.994,37.38,110.611,31.998,103.994,31.998z M103.994,47.998c-2.203,0-4-1.793-4-4c0-2.207,1.797-4,4-4s4,1.793,4,4
			C107.994,46.205,106.197,47.998,103.994,47.998z"/>
	</g>
</g>
<g>
	<g>
		<path d="M334.998,66.192c-23.827-33.803-76.77-34.194-79.012-34.194c-6.914,0-19.999,4.179-19.999,19.999
			c0,15.35,18.124,29.795,23.999,34.072v37.925c0,2.211,1.789,4,4,4s3.999-1.79,3.999-4V83.996c0-1.336-0.671-2.586-1.78-3.328
			c-6.18-4.121-22.218-17.299-22.218-28.67c0-11.293,10.015-11.977,11.999-12c0.508,0,51.005,0.351,72.481,30.803
			c6.641,9.422-15.64,44.654-33.584,66.665c-1.391,1.711-1.141,4.23,0.57,5.628c0.75,0.606,1.64,0.898,2.531,0.898
			c1.156,0,2.313-0.504,3.102-1.472C308.936,132.883,347.497,83.921,334.998,66.192z"/>
	</g>
</g>
<g>
	<g>
		<path d="M251.986,289.906v-37.912c0-2.211-1.79-4-4-4c-2.211,0-4,1.789-4,4v39.99c0,1.336,0.672,2.586,1.781,3.328
			c6.179,4.125,22.217,17.296,22.217,28.67c0,11.297-10.015,11.977-11.999,12c-0.507,0-51.004-0.352-72.48-30.803
			c-6.633-9.414,15.64-44.646,33.584-66.657c1.391-1.711,1.141-4.23-0.57-5.628c-1.718-1.391-4.234-1.141-5.632,0.574
			c-7.859,9.636-46.412,58.594-33.913,76.32c23.827,33.803,76.77,34.194,79.012,34.194c6.914,0,19.999-4.18,19.999-20
			C275.985,308.632,257.861,294.187,251.986,289.906z"/>
	</g>
</g>
<g>
	<g>
		<path d="M239.158,126.196c-4.414-11.616-27.608-69.566-49.146-67.535c-41.193,3.738-67.996,49.392-69.113,51.333
			c-3.461,5.988-6.382,19.405,7.312,27.315c13.288,7.659,34.858-0.805,41.506-3.746l32.842,18.964c0.633,0.363,1.32,0.535,2,0.535
			c1.375,0,2.727-0.719,3.461-1.999c1.11-1.914,0.454-4.36-1.46-5.465l-34.639-19.999c-1.156-0.668-2.562-0.723-3.773-0.121
			c-6.657,3.277-26.14,10.566-35.936,4.902c-9.774-5.644-5.36-14.656-4.391-16.386c0.258-0.442,25.811-43.998,62.911-47.365
			c0.164-0.015,0.32-0.023,0.484-0.023c11.522,0,30.506,36.26,40.458,62.434c0.789,2.074,3.117,3.105,5.164,2.316
			C238.9,130.571,239.939,128.262,239.158,126.196z"/>
	</g>
</g>
<g>
	<g>
		<path d="M383.753,238.67c-13.296-7.687-34.857,0.789-41.498,3.746l-32.842-18.964c-1.914-1.097-4.359-0.453-5.46,1.465
			c-1.109,1.914-0.453,4.36,1.46,5.465l34.64,19.999c1.155,0.664,2.569,0.715,3.772,0.121c6.649-3.289,26.054-10.605,35.928-4.902
			c9.781,5.644,5.367,14.655,4.398,16.382c-0.258,0.441-25.89,44.01-62.911,47.368c-0.164,0.015-0.32,0.023-0.484,0.023
			c-11.53,0-30.506-36.264-40.458-62.434c-0.789-2.07-3.109-3.101-5.164-2.316c-2.062,0.785-3.101,3.094-2.32,5.16
			c4.343,11.43,26.78,67.583,48.067,67.583c0.359,0,0.718-0.016,1.078-0.047c41.185-3.742,67.997-49.395,69.113-51.333
			c0.258-0.438,2.485-4.434,2.797-9.688C394.315,248.951,390.722,242.693,383.753,238.67z"/>
	</g>
</g>
<g>
	<g>
		<path d="M200.021,211.057c-1.102-1.926-3.563-2.567-5.461-1.465l-34.639,19.999c-1.156,0.668-1.906,1.871-1.992,3.207
			c-0.476,7.414-3.875,27.897-13.718,33.577c-9.773,5.64-15.374-2.687-16.382-4.398c-0.258-0.437-25.178-44.412-9.57-78.16
			c4.836-10.463,46.498-8.78,74.52-4.253c2.14,0.344,4.233-1.121,4.585-3.312c0.36-2.179-1.125-4.233-3.304-4.585
			c-12.281-1.985-73.965-10.891-83.066,8.792c-17.358,37.544,8.781,83.574,9.906,85.519c2.499,4.336,8.523,10.382,16.858,10.382
			c3.171,0,6.679-0.875,10.453-3.05c13.288-7.679,16.741-30.6,17.507-37.83l32.842-18.959
			C200.474,215.416,201.13,212.971,200.021,211.057z"/>
	</g>
</g>
<g>
	<g>
		<path d="M391.072,109.994c-3.452-5.987-13.6-15.241-27.318-7.315c-13.288,7.671-16.733,30.58-17.499,37.81l-32.842,18.968
			c-1.914,1.105-2.57,3.55-1.461,5.464c1.094,1.918,3.547,2.563,5.461,1.465l34.639-20.007c1.156-0.668,1.906-1.872,1.992-3.207
			c0.483-7.414,3.898-27.905,13.71-33.565c9.765-5.644,15.39,2.68,16.39,4.387c0.257,0.438,25.178,44.419,9.569,78.168
			c-4.828,10.464-46.513,8.773-74.52,4.246c-2.147-0.332-4.233,1.125-4.585,3.308c-0.359,2.184,1.125,4.235,3.304,4.59
			c6.156,0.996,24.741,3.734,42.881,3.734c18.038,0,35.646-2.707,40.185-12.519C418.337,157.976,392.197,111.935,391.072,109.994z"
			/>
	</g>
</g>
<g>
	<g>
		<path d="M255.986,151.992c-2.211,0-4,1.789-4,4v7.999c0,2.211,1.789,4,4,4s4-1.789,4-4v-7.999
			C259.986,153.781,258.197,151.992,255.986,151.992z"/>
	</g>
</g>
<g>
	<g>
		<path d="M255.986,207.981c-2.211,0-4,1.789-4,4v8.007c0,2.211,1.789,4,4,4s4-1.789,4-4v-8.007
			C259.986,209.77,258.197,207.981,255.986,207.981z"/>
	</g>
</g>
<g>
	<g>
		<path d="M247.448,165.201l-4-6.921c-1.109-1.925-3.578-2.569-5.461-1.464c-1.914,1.105-2.57,3.554-1.461,5.464l4,6.922
			c0.742,1.285,2.086,2,3.461,2c0.679,0,1.374-0.172,2-0.536C247.901,169.56,248.557,167.111,247.448,165.201z"/>
	</g>
</g>
<g>
	<g>
		<path d="M275.446,213.699l-4-6.929c-1.102-1.918-3.563-2.563-5.46-1.465c-1.914,1.106-2.57,3.551-1.461,5.465l3.999,6.929
			c0.734,1.281,2.086,2,3.461,2c0.68,0,1.367-0.172,2-0.536C275.899,218.058,276.555,215.613,275.446,213.699z"/>
	</g>
</g>
<g>
	<g>
		<path d="M237.206,172.518l-6.929-4c-1.914-1.094-4.358-0.449-5.46,1.465c-1.11,1.914-0.454,4.36,1.46,5.465l6.929,4
			c0.633,0.363,1.32,0.535,2,0.535c1.375,0,2.726-0.719,3.461-2.001C239.776,176.068,239.12,173.623,237.206,172.518z"/>
	</g>
</g>
<g>
	<g>
		<path d="M285.695,200.517l-6.929-4c-1.906-1.094-4.359-0.449-5.461,1.465c-1.109,1.913-0.453,4.359,1.461,5.464l6.929,4
			c0.633,0.363,1.32,0.535,2,0.535c1.375,0,2.727-0.719,3.461-1.999C288.265,204.068,287.609,201.622,285.695,200.517z"/>
	</g>
</g>
<g>
	<g>
		<path d="M231.987,183.982h-7.999c-2.211,0-4,1.789-4,4s1.789,4,4,4h7.999c2.211,0,4-1.789,4-4S234.198,183.982,231.987,183.982z"
			/>
	</g>
</g>
<g>
	<g>
		<path d="M287.984,183.982h-8.007c-2.211,0-4,1.789-4,4s1.789,4,4,4h8.007c2.211,0,4-1.789,4-4S290.195,183.982,287.984,183.982z"
			/>
	</g>
</g>
<g>
	<g>
		<path d="M238.659,197.981c-1.109-1.926-3.578-2.574-5.461-1.465l-6.921,4c-1.913,1.106-2.569,3.555-1.46,5.465
			c0.742,1.285,2.085,2,3.46,2c0.679,0,1.375-0.172,2-0.536l6.921-4C239.112,202.34,239.768,199.891,238.659,197.981z"/>
	</g>
</g>
<g>
	<g>
		<path d="M287.156,169.983c-1.109-1.918-3.555-2.57-5.461-1.465l-6.937,4.008c-1.914,1.105-2.57,3.554-1.461,5.464
			c0.742,1.285,2.086,2,3.461,2c0.68,0,1.368-0.171,2-0.535l6.937-4.007C287.609,174.342,288.265,171.893,287.156,169.983z"/>
	</g>
</g>
<g>
	<g>
		<path d="M245.97,205.294c-1.905-1.093-4.358-0.449-5.46,1.473l-3.992,6.937c-1.101,1.914-0.437,4.359,1.477,5.464
			c0.625,0.359,1.312,0.531,1.992,0.531c1.383,0,2.727-0.719,3.468-2.003l3.992-6.937
			C248.548,208.845,247.884,206.399,245.97,205.294z"/>
	</g>
</g>
<g>
	<g>
		<path d="M273.985,156.82c-1.883-1.109-4.352-0.46-5.461,1.457l-4.007,6.929c-1.109,1.914-0.453,4.36,1.461,5.465
			c0.625,0.367,1.32,0.539,1.999,0.539c1.375,0,2.719-0.715,3.461-1.996l4.008-6.93C276.555,160.37,275.899,157.925,273.985,156.82z
			"/>
	</g>
</g>
<g>
	<g>
		<path d="M255.986,175.991c-6.617,0-11.999,5.382-11.999,11.999c0,6.617,5.382,11.999,11.999,11.999s11.999-5.382,11.999-11.999
			C267.985,181.373,262.603,175.991,255.986,175.991z M255.986,191.99c-2.203,0-4-1.793-4-4c0-2.207,1.797-4,4-4s4,1.793,4,4
			C259.986,190.197,258.189,191.99,255.986,191.99z"/>
	</g>
</g>
<g>
	<g>
		<path d="M247.986,423.977c-2.211,0-4,1.789-4,4v15.999c0,2.211,1.789,4,4,4s4-1.789,4-4v-15.999
			C251.986,425.766,250.196,423.977,247.986,423.977z"/>
	</g>
</g>
<g>
	<g>
		<path d="M263.986,423.977c-2.211,0-4,1.789-4,4v15.999c0,2.211,1.789,4,4,4s3.999-1.789,3.999-4v-15.999
			C267.985,425.766,266.197,423.977,263.986,423.977z"/>
	</g>
</g>
<g>
	<g>
		<path d="M239.987,479.974c-2.211,0-4,1.789-4,4v7.999c0,2.211,1.789,4,4,4s4-1.789,4-4v-7.999
			C243.987,481.763,242.198,479.974,239.987,479.974z"/>
	</g>
</g>
<g>
	<g>
		<path d="M271.985,479.974h-31.998c-2.211,0-4,1.789-4,4s1.789,4,4,4h31.998c2.211,0,4-1.789,4-4S274.196,479.974,271.985,479.974z
			"/>
	</g>
</g>
<g>
	<g>
		<path d="M271.985,479.974c-2.211,0-4,1.789-4,4v7.999c0,2.211,1.789,4,4,4s4-1.789,4-4v-7.999
			C275.985,481.763,274.196,479.974,271.985,479.974z"/>
	</g>
</g>
<g>
	<g>
		<path d="M263.986,463.975h-16c-2.211,0-4,1.789-4,4c0,2.21,1.789,3.999,4,3.999h16c2.211,0,3.999-1.789,3.999-3.999
			C267.985,465.764,266.197,463.975,263.986,463.975z"/>
	</g>
</g>
<g>
</g>
<g>
</g>
<g>
</g>
<g>
</g>
<g>
</g>
<g>
</g>
<g>
</g>
<g>
</g>
<g>
</g>
<g>
</g>
<g>
</g>
<g>
</g>
<g>
</g>
<g>
</g>
<g>
</g>
</svg>
