<svg id="Capa_1" enable-background="new 0 0 512 512" height="512" viewBox="0 0 512 512" width="512" xmlns="http://www.w3.org/2000/svg"><g><path d="m483.622 0h-430.232c-13.556 0-24.585 11.029-24.585 24.585v74.5h-17.511c-4.143 0-7.5 3.358-7.5 7.5v40.445c0 4.142 3.357 7.5 7.5 7.5h17.512v21.384h-17.512c-4.143 0-7.5 3.358-7.5 7.5v81.552c0 4.143 3.357 7.5 7.5 7.5h17.512v21.384h-17.512c-4.143 0-7.5 3.357-7.5 7.5v40.776c0 4.143 3.357 7.5 7.5 7.5h17.512v21.384h-17.512c-4.143 0-7.5 3.357-7.5 7.5v40.776c0 4.143 3.357 7.5 7.5 7.5h17.512v60.628c-.001 13.557 11.028 24.586 24.584 24.586h267.517c4.143 0 7.5-3.357 7.5-7.5s-3.357-7.5-7.5-7.5h-267.517c-5.285 0-9.585-4.3-9.585-9.586v-60.628h26.719c4.143 0 7.5-3.357 7.5-7.5v-40.776c0-4.143-3.357-7.5-7.5-7.5h-26.719v-21.384h7.933c4.143 0 7.5-3.357 7.5-7.5v-40.776c0-4.143-3.357-7.5-7.5-7.5h-7.933v-21.384h7.933c4.143 0 7.5-3.357 7.5-7.5v-81.552c0-4.142-3.357-7.5-7.5-7.5h-7.933v-21.384h7.933c4.143 0 7.5-3.358 7.5-7.5v-40.445c0-4.142-3.357-7.5-7.5-7.5h-7.933v-74.5c0-5.286 4.3-9.585 9.585-9.585h205.557v239.995c0 8.812 7.169 15.981 15.981 15.981h12.977c8.812 0 15.982-7.169 15.982-15.981v-239.995h16.513v239.995c0 8.812 7.169 15.981 15.981 15.981h12.977c8.812 0 15.982-7.169 15.982-15.981v-145.051c0-4.142-3.357-7.5-7.5-7.5s-7.5 3.358-7.5 7.5v145.051c0 .541-.44.981-.982.981h-12.977c-.541 0-.981-.44-.981-.981v-239.995h14.94v64.957c0 4.142 3.357 7.5 7.5 7.5s7.5-3.358 7.5-7.5v-64.957h118.281c5.285 0 9.585 4.3 9.585 9.585v462.829c0 5.286-4.3 9.586-9.585 9.586h-132.728c-4.143 0-7.5 3.357-7.5 7.5s3.357 7.5 7.5 7.5h132.729c13.557 0 24.585-11.029 24.585-24.586v-462.829c0-13.556-11.029-24.585-24.585-24.585zm-420.598 411.787h-44.23v-25.777h44.23zm-18.786-77.161h-25.444v-25.776h25.444zm0-77.16h-25.444v-66.552h25.444zm0-117.936h-25.444v-25.445h25.444zm244.649 115.465c0 .541-.44.981-.982.981h-12.977c-.541 0-.981-.44-.981-.981v-239.995h14.94z"/><path d="m158.96 278.991c8.081 0 14.655-6.574 14.655-14.655v-22.134c0-8.071 2.521-15.778 7.289-22.289l13.296-18.156c4.554-6.218 5.217-14.351 1.73-21.224-3.486-6.873-10.438-11.143-18.146-11.143h-43.077c-11.219 0-20.346 9.127-20.346 20.346v74.6c0 8.081 6.574 14.655 14.655 14.655zm-29.598-89.256c0-2.948 2.398-5.346 5.346-5.346h43.077c2.963 0 4.321 2.047 4.768 2.928s1.296 3.186-.454 5.577l-13.296 18.156c-6.665 9.1-10.188 19.872-10.188 31.152v21.789h-29.253z"/><path d="m386.164 201.74c0 4.142 3.357 7.5 7.5 7.5h5.583c4.143 0 7.5-3.358 7.5-7.5s-3.357-7.5-7.5-7.5h-5.583c-4.143 0-7.5 3.358-7.5 7.5z"/><path d="m434.147 209.24c4.143 0 7.5-3.358 7.5-7.5s-3.357-7.5-7.5-7.5h-5.584c-4.143 0-7.5 3.358-7.5 7.5s3.357 7.5 7.5 7.5z"/><path d="m463.463 209.24h5.584c4.143 0 7.5-3.358 7.5-7.5s-3.357-7.5-7.5-7.5h-5.584c-4.143 0-7.5 3.358-7.5 7.5s3.357 7.5 7.5 7.5z"/><path d="m413.905 246.012h4.813c4.143 0 7.5-3.358 7.5-7.5s-3.357-7.5-7.5-7.5h-4.813c-4.143 0-7.5 3.358-7.5 7.5s3.357 7.5 7.5 7.5z"/><path d="m443.991 246.012h4.813c4.143 0 7.5-3.358 7.5-7.5s-3.357-7.5-7.5-7.5h-4.813c-4.143 0-7.5 3.358-7.5 7.5s3.357 7.5 7.5 7.5z"/><path d="m112.999 69.68c4.143 0 7.5-3.358 7.5-7.5s-3.357-7.5-7.5-7.5h-7.522c-4.143 0-7.5 3.358-7.5 7.5s3.357 7.5 7.5 7.5z"/><path d="m160.019 54.68h-7.523c-4.143 0-7.5 3.358-7.5 7.5s3.357 7.5 7.5 7.5h7.523c4.143 0 7.5-3.358 7.5-7.5s-3.357-7.5-7.5-7.5z"/><path d="m207.04 69.68c4.143 0 7.5-3.358 7.5-7.5s-3.357-7.5-7.5-7.5h-7.523c-4.143 0-7.5 3.358-7.5 7.5s3.357 7.5 7.5 7.5z"/><path d="m139.233 99.085h-6.485c-4.143 0-7.5 3.358-7.5 7.5s3.357 7.5 7.5 7.5h6.485c4.143 0 7.5-3.358 7.5-7.5s-3.357-7.5-7.5-7.5z"/><path d="m173.282 114.085h6.486c4.143 0 7.5-3.358 7.5-7.5s-3.357-7.5-7.5-7.5h-6.486c-4.143 0-7.5 3.358-7.5 7.5s3.357 7.5 7.5 7.5z"/><path d="m123.66 394.893c14.162 0 25.684-11.522 25.684-25.685s-11.521-25.684-25.684-25.684-25.684 11.521-25.684 25.684 11.522 25.685 25.684 25.685zm0-36.368c5.891 0 10.684 4.793 10.684 10.684 0 5.892-4.793 10.685-10.684 10.685s-10.684-4.793-10.684-10.685c0-5.891 4.793-10.684 10.684-10.684z"/><path d="m282.374 369.208c0-14.162-11.521-25.684-25.684-25.684s-25.685 11.521-25.685 25.684 11.522 25.685 25.685 25.685 25.684-11.522 25.684-25.685zm-36.368 0c0-5.891 4.793-10.684 10.685-10.684 5.891 0 10.684 4.793 10.684 10.684 0 5.892-4.793 10.685-10.684 10.685-5.892 0-10.685-4.793-10.685-10.685z"/><path d="m328.822 442.386h-6.745v-6.266c0-6.801-5.533-12.334-12.334-12.334h-100.287v-54.578c0-1.943-.755-3.812-2.104-5.21l-24.048-24.902v-30.246h25.114c8.89 0 16.122-7.232 16.122-16.122v-137.076c0-8.89-7.232-16.122-16.122-16.122h-104.32c-8.891 0-16.123 7.232-16.123 16.122v79.837c0 4.142 3.357 7.5 7.5 7.5s7.5-3.358 7.5-7.5v-79.837c0-.619.504-1.122 1.123-1.122h104.319c.619 0 1.122.503 1.122 1.122v137.076c0 .619-.503 1.122-1.122 1.122h-104.319c-.619 0-1.123-.503-1.123-1.122v-27.252c0-4.143-3.357-7.5-7.5-7.5s-7.5 3.357-7.5 7.5v27.252c0 8.89 7.232 16.122 16.123 16.122h64.205v33.276c0 1.943.755 3.812 2.104 5.21l24.048 24.902v51.548h-69.9c-6.802 0-12.335 5.533-12.335 12.334v6.266h-6.744c-4.143 0-7.5 3.357-7.5 7.5s3.357 7.5 7.5 7.5h6.744v6.265c0 6.801 5.533 12.334 12.335 12.334h185.188c6.801 0 12.334-5.533 12.334-12.334v-6.265h6.745c4.143 0 7.5-3.357 7.5-7.5s-3.357-7.5-7.5-7.5zm-21.745 18.599h-179.857v-22.198h179.856v22.198z"/><path d="m351.443 411.292c0 4.143 3.357 7.5 7.5 7.5s7.5-3.357 7.5-7.5v-2.192h9.582v2.191c0 4.143 3.357 7.5 7.5 7.5s7.5-3.357 7.5-7.5v-2.191h9.582v2.191c0 4.143 3.357 7.5 7.5 7.5s7.5-3.357 7.5-7.5v-2.191h10.254c7.052 0 12.789-5.736 12.789-12.788v-10.255h2.19c4.143 0 7.5-3.357 7.5-7.5s-3.357-7.5-7.5-7.5h-2.19v-9.582h2.19c4.143 0 7.5-3.357 7.5-7.5s-3.357-7.5-7.5-7.5h-2.19v-9.581h2.19c4.143 0 7.5-3.357 7.5-7.5s-3.357-7.5-7.5-7.5h-2.19v-10.255c0-7.052-5.737-12.789-12.789-12.789h-10.254v-2.19c0-4.143-3.357-7.5-7.5-7.5s-7.5 3.357-7.5 7.5v2.19h-9.582v-2.19c0-4.143-3.357-7.5-7.5-7.5s-7.5 3.357-7.5 7.5v2.19h-9.582v-2.19c0-4.143-3.357-7.5-7.5-7.5s-7.5 3.357-7.5 7.5v2.19h-10.255c-7.052 0-12.788 5.737-12.788 12.789v10.255h-2.19c-4.143 0-7.5 3.357-7.5 7.5s3.357 7.5 7.5 7.5h2.19v9.581h-2.19c-4.143 0-7.5 3.357-7.5 7.5s3.357 7.5 7.5 7.5h2.19v9.582h-2.19c-4.143 0-7.5 3.357-7.5 7.5s3.357 7.5 7.5 7.5h2.19v10.255c0 7.052 5.736 12.788 12.788 12.788h10.255zm-8.043-97.442h80.25v80.25h-80.25z"/><path d="m364.688 376.838c4.143 0 7.5-3.357 7.5-7.5v-30.727c0-4.143-3.357-7.5-7.5-7.5s-7.5 3.357-7.5 7.5v30.727c0 4.143 3.358 7.5 7.5 7.5z"/><path d="m402.362 376.838c4.143 0 7.5-3.357 7.5-7.5v-30.727c0-4.143-3.357-7.5-7.5-7.5s-7.5 3.357-7.5 7.5v30.727c0 4.143 3.357 7.5 7.5 7.5z"/><path d="m477.342 52.695c0-6.664-5.421-12.085-12.085-12.085h-67.804c-6.664 0-12.085 5.421-12.085 12.085v18.969c0 6.664 5.421 12.084 12.085 12.084h67.804c6.664 0 12.085-5.421 12.085-12.084zm-15 16.054h-61.974v-13.139h61.974z"/><path d="m431.355 168.465c19.701 0 35.729-16.028 35.729-35.729s-16.028-35.729-35.729-35.729-35.729 16.028-35.729 35.729 16.028 35.729 35.729 35.729zm0-56.459c11.431 0 20.729 9.299 20.729 20.729s-9.299 20.729-20.729 20.729-20.729-9.299-20.729-20.729 9.299-20.729 20.729-20.729z"/><path d="m377.267 461.939c-4.143 0-7.5 3.357-7.5 7.5s3.357 7.5 7.5 7.5h58.729c4.143 0 7.5-3.357 7.5-7.5s-3.357-7.5-7.5-7.5z"/></g></svg>