<?xml version="1.0" encoding="utf-8"?>
<!-- Generator: Adobe Illustrator 21.1.0, SVG Export Plug-In . SVG Version: 6.00 Build 0)  -->
<svg version="1.1" id="Capa_1" xmlns="http://www.w3.org/2000/svg" xmlns:xlink="http://www.w3.org/1999/xlink" x="0px" y="0px"
	 viewBox="0 0 22 42" style="enable-background:new 0 0 22 42;" xml:space="preserve">
<style type="text/css">
	.st0{fill:none;stroke:#979797;}
	.st1{fill:#6406D9;}
	.st2{fill:none;stroke:#FFFFFF;stroke-width:1.76;}
</style>
<title>checkbox</title>
<desc>Created with Sketch.</desc>
<g id="checkbox">
	<path id="Rectangle-7-Copy" class="st0" d="M4,1.7H18c1.3,0,2.4,1.1,2.4,2.4v13.9c0,1.3-1.1,2.4-2.4,2.4H4c-1.3,0-2.4-1.1-2.4-2.4
		V4.1C1.6,2.8,2.7,1.7,4,1.7z"/>
	<path id="Rectangle-7-Copy-2" class="st1" d="M3.5,21h15c1.3,0,2.4,1.1,2.4,2.4v15c0,1.3-1.1,2.4-2.4,2.4h-15
		c-1.3,0-2.4-1.1-2.4-2.4v-15C1.1,22.1,2.2,21,3.5,21z"/>
	<polyline id="Rectangle-25" class="st2" points="16,25 9.9,36 5,31.6 	"/>
</g>
</svg>
