<svg height="480pt" viewBox="0 -48 480 480" width="480pt" xmlns="http://www.w3.org/2000/svg"><path d="m472 0h-464c-4.417969 0-8 3.582031-8 8v288c0 4.417969 3.582031 8 8 8h144v32h-16c-22.082031.027344-39.972656 17.917969-40 40 0 4.417969 3.582031 8 8 8h272c4.417969 0 8-3.582031 8-8-.027344-22.082031-17.917969-39.972656-40-40h-16v-32h144c4.417969 0 8-3.582031 8-8v-288c0-4.417969-3.582031-8-8-8zm-105.371094 368h-253.257812c3.402344-9.582031 12.460937-15.988281 22.628906-16h208c10.167969.011719 19.226562 6.417969 22.628906 16zm-54.628906-32h-144v-32h144zm152-48h-448v-272h448zm0 0"/><path d="m40 240h400c4.417969 0 8-3.582031 8-8v-192c-.015625-4.410156-3.589844-7.984375-8-8h-400c-4.417969 0-8 3.582031-8 8v192c0 4.417969 3.582031 8 8 8zm8-192h324.6875l-26.34375 26.34375c-2.023438 2.019531-2.816406 4.96875-2.078125 7.730469.738281 2.765625 2.894531 4.921875 5.660156 5.660156 2.761719.738281 5.710938-.054687 7.730469-2.078125l37.65625-37.65625h25.375l-66.34375 66.34375c-2.023438 2.019531-2.816406 4.96875-2.078125 7.730469.738281 2.765625 2.894531 4.921875 5.660156 5.660156 2.761719.738281 5.710938-.054687 7.730469-2.078125l66.34375-66.34375v164.6875h-384zm0 0"/><path d="m432 256h-48c-4.417969 0-8 3.582031-8 8s3.582031 8 8 8h48c4.417969 0 8-3.582031 8-8s-3.582031-8-8-8zm0 0"/><path d="m352 256h-16c-4.417969 0-8 3.582031-8 8s3.582031 8 8 8h16c4.417969 0 8-3.582031 8-8s-3.582031-8-8-8zm0 0"/></svg>