<?xml version="1.0" encoding="utf-8"?>
<!-- Generator: Adobe Illustrator 16.0.0, SVG Export Plug-In . SVG Version: 6.00 Build 0)  -->
<!DOCTYPE svg PUBLIC "-//W3C//DTD SVG 1.1//EN" "http://www.w3.org/Graphics/SVG/1.1/DTD/svg11.dtd">
<svg version="1.1" id="Layer_1" xmlns="http://www.w3.org/2000/svg" xmlns:xlink="http://www.w3.org/1999/xlink" x="0px" y="0px"
	 width="411px" height="143px" viewBox="0 0 411 143" enable-background="new 0 0 411 143" xml:space="preserve">
<g id="XMLID_2_">
	<g id="XMLID_16_">
		<g id="XMLID_62_">
			<path id="XMLID_68_" fill="#0094D4" d="M150.282,83.117l11.791-26.625c0.822-1.838,2.32-2.949,4.35-2.949h0.436
				c2.029,0,3.479,1.111,4.301,2.949l11.791,26.625c0.24,0.531,0.385,1.016,0.385,1.498c0,1.98-1.545,3.576-3.527,3.576
				c-1.738,0-2.898-1.014-3.574-2.561l-2.273-5.316h-14.883l-2.367,5.559c-0.629,1.449-1.885,2.318-3.432,2.318
				c-1.932,0-3.43-1.547-3.43-3.479C149.849,84.182,150.042,83.648,150.282,83.117z M171.206,73.742l-4.688-11.162l-4.688,11.162
				H171.206z"/>
			<path id="XMLID_63_" fill="#0094D4" d="M179.808,89.092c-1.964,0-3.526-1.101-4.399-3.101l-2.043-4.776h-13.692l-2.134,5.011
				c-0.78,1.797-2.372,2.866-4.261,2.866c-2.429,0-4.33-1.923-4.33-4.379c0-0.732,0.26-1.405,0.514-1.967l11.788-26.618
				c1.006-2.249,2.843-3.485,5.173-3.485h0.436c2.299,0,4.118,1.236,5.123,3.481l11.792,26.629c0.314,0.694,0.462,1.288,0.462,1.862
				C184.235,87.126,182.291,89.092,179.808,89.092z M158.481,79.414h16.073l2.507,5.862c0.591,1.354,1.49,2.015,2.746,2.015
				c1.473,0,2.627-1.176,2.627-2.676c0-0.309-0.098-0.667-0.305-1.127l-11.794-26.632c-0.716-1.6-1.887-2.413-3.478-2.413h-0.436
				c-2.021,0-3.034,1.314-3.527,2.417l-11.79,26.621c-0.178,0.394-0.356,0.842-0.356,1.231c0,1.445,1.111,2.578,2.529,2.578
				c1.166,0,2.115-0.647,2.605-1.776L158.481,79.414z M172.562,74.643h-12.086l6.043-14.389L172.562,74.643z M163.187,72.842h6.664
				l-3.332-7.936L163.187,72.842z"/>
		</g>
		<g id="XMLID_56_">
			<path id="XMLID_60_" fill="#0094D4" d="M189.185,57.506c0-2.078,1.643-3.721,3.721-3.721s3.723,1.643,3.723,3.721v9.955h13.723
				v-9.955c0-2.078,1.643-3.721,3.721-3.721s3.721,1.643,3.721,3.721v26.965c0,2.078-1.643,3.721-3.721,3.721
				s-3.721-1.643-3.721-3.721V74.322h-13.723v10.148c0,2.078-1.645,3.721-3.723,3.721s-3.721-1.643-3.721-3.721V57.506z"/>
			<path id="XMLID_57_" fill="#0094D4" d="M214.071,89.092c-2.592,0-4.621-2.029-4.621-4.621v-9.248h-11.922v9.248
				c0,2.592-2.03,4.621-4.623,4.621c-2.592,0-4.621-2.029-4.621-4.621V57.506c0-2.592,2.029-4.621,4.621-4.621
				c2.593,0,4.623,2.029,4.623,4.621v9.055h11.922v-9.055c0-2.592,2.029-4.621,4.621-4.621s4.621,2.029,4.621,4.621v26.965
				C218.692,87.063,216.663,89.092,214.071,89.092z M195.728,73.422h15.523v11.049c0,1.581,1.239,2.82,2.82,2.82
				s2.82-1.239,2.82-2.82V57.506c0-1.581-1.239-2.82-2.82-2.82s-2.82,1.239-2.82,2.82v10.855h-15.523V57.506
				c0-1.581-1.24-2.82-2.822-2.82c-1.581,0-2.82,1.239-2.82,2.82v26.965c0,1.581,1.239,2.82,2.82,2.82
				c1.582,0,2.822-1.239,2.822-2.82V73.422z"/>
		</g>
		<g id="XMLID_47_">
			<path id="XMLID_53_" fill="#0094D4" d="M224.413,71.084v-0.096c0-9.617,7.588-17.492,18.025-17.492s17.928,7.779,17.928,17.396
				v0.096c0,9.617-7.588,17.492-18.025,17.492C231.905,88.48,224.413,80.701,224.413,71.084z M252.585,71.084v-0.096
				c0-5.799-4.252-10.631-10.244-10.631c-5.99,0-10.146,4.736-10.146,10.535v0.096c0,5.799,4.252,10.631,10.244,10.631
				S252.585,76.885,252.585,71.084z"/>
			<path id="XMLID_48_" fill="#0094D4" d="M242.341,89.381c-10.734,0-18.828-7.866-18.828-18.297
				c0-10.409,8.313-18.488,18.926-18.488c10.734,0,18.828,7.866,18.828,18.297C261.267,81.302,252.953,89.381,242.341,89.381z
				 M242.438,54.396c-9.603,0-17.125,7.288-17.125,16.592c0,9.5,7.32,16.592,17.027,16.592c9.603,0,17.125-7.288,17.125-16.592
				C259.466,61.488,252.146,54.396,242.438,54.396z M242.438,82.52c-6.249,0-11.145-5.064-11.145-11.531
				c0-6.615,4.749-11.531,11.047-11.531c6.249,0,11.145,5.064,11.145,11.531C253.485,77.604,248.736,82.52,242.438,82.52z
				 M242.341,61.258c-5.271,0-9.246,4.143-9.246,9.635c0,5.643,4.018,9.826,9.344,9.826c5.271,0,9.246-4.143,9.246-9.635
				C251.685,65.441,247.667,61.258,242.341,61.258z"/>
		</g>
		<g id="XMLID_38_">
			<path id="XMLID_44_" fill="#0094D4" d="M266.987,57.797c0-2.078,1.645-3.721,3.723-3.721h11.742c4.301,0,7.635,1.207,9.857,3.43
				c1.885,1.885,2.9,4.543,2.9,7.732v0.096c0,5.316-2.658,8.602-6.766,10.293l5.17,6.283c0.725,0.918,1.207,1.691,1.207,2.85
				c0,2.078-1.738,3.432-3.525,3.432c-1.691,0-2.803-0.82-3.674-1.934l-7.248-9.18h-5.943v7.393c0,2.078-1.643,3.721-3.721,3.721
				s-3.723-1.643-3.723-3.721V57.797z M281.968,70.506c3.625,0,5.703-1.934,5.703-4.785v-0.096c0-3.189-2.223-4.832-5.846-4.832
				h-7.395v9.713H281.968z"/>
			<path id="XMLID_39_" fill="#0094D4" d="M291.296,89.092c-1.749,0-3.184-0.745-4.383-2.279l-6.976-8.834h-4.606v6.492
				c0,2.592-2.029,4.621-4.621,4.621c-2.593,0-4.623-2.029-4.623-4.621V57.797c0-2.592,2.03-4.621,4.623-4.621h11.742
				c4.449,0,8.078,1.277,10.494,3.693c2.07,2.07,3.164,4.964,3.164,8.369c0,4.975-2.147,8.63-6.229,10.718l4.428,5.382
				c0.721,0.912,1.412,1.915,1.412,3.422C295.722,87.472,293.472,89.092,291.296,89.092z M273.53,76.178h7.28l7.519,9.521
				c0.861,1.102,1.776,1.592,2.967,1.592c1.29,0,2.625-0.947,2.625-2.531c0-0.857-0.327-1.422-1.014-2.292l-5.933-7.21l1.127-0.464
				c4.119-1.696,6.208-4.879,6.208-9.46c0-3.013-0.912-5.467-2.637-7.191c-2.071-2.071-5.26-3.166-9.221-3.166H270.71
				c-1.582,0-2.822,1.239-2.822,2.82v26.674c0,1.581,1.24,2.82,2.822,2.82c1.581,0,2.82-1.239,2.82-2.82V76.178z M281.968,71.406
				h-8.438V59.893h8.295c4.225,0,6.746,2.143,6.746,5.732C288.571,69.175,285.979,71.406,281.968,71.406z M275.331,69.605h6.637
				c3.007,0,4.803-1.452,4.803-3.885c0-3.345-2.689-4.027-4.945-4.027h-6.494V69.605z"/>
		</g>
		<g id="XMLID_29_">
			<path id="XMLID_35_" fill="#0094D4" d="M300.044,83.117l11.791-26.625c0.82-1.838,2.318-2.949,4.348-2.949h0.436
				c2.029,0,3.479,1.111,4.301,2.949l11.791,26.625c0.24,0.531,0.387,1.016,0.387,1.498c0,1.98-1.547,3.576-3.527,3.576
				c-1.74,0-2.9-1.014-3.576-2.561l-2.271-5.316h-14.883l-2.367,5.559c-0.629,1.449-1.887,2.318-3.432,2.318
				c-1.934,0-3.432-1.547-3.432-3.479C299.608,84.182,299.802,83.648,300.044,83.117z M320.968,73.742L316.28,62.58l-4.688,11.162
				H320.968z"/>
			<path id="XMLID_30_" fill="#0094D4" d="M329.569,89.092c-1.965,0-3.528-1.101-4.401-3.101l-2.041-4.776h-13.692l-2.134,5.011
				c-0.78,1.797-2.372,2.866-4.261,2.866c-2.43,0-4.332-1.923-4.332-4.379c0-0.736,0.261-1.409,0.517-1.97l11.787-26.615
				c1.003-2.249,2.839-3.485,5.171-3.485h0.436c2.299,0,4.118,1.236,5.123,3.481l11.792,26.629c0.315,0.697,0.464,1.291,0.464,1.862
				C333.997,87.126,332.053,89.092,329.569,89.092z M308.243,79.414h16.073l2.505,5.863c0.591,1.353,1.491,2.014,2.748,2.014
				c1.473,0,2.627-1.176,2.627-2.676c0-0.306-0.098-0.664-0.307-1.127l-11.794-26.632c-0.716-1.6-1.887-2.413-3.478-2.413h-0.436
				c-2.022,0-3.033,1.313-3.525,2.416l-11.79,26.622c-0.179,0.394-0.358,0.84-0.358,1.231c0,1.445,1.112,2.578,2.531,2.578
				c1.166,0,2.115-0.647,2.605-1.776L308.243,79.414z M322.323,74.643h-12.086l6.043-14.389L322.323,74.643z M312.948,72.842h6.664
				l-3.332-7.936L312.948,72.842z"/>
		</g>
		<g id="XMLID_23_">
			<path id="XMLID_27_" fill="#0094D4" d="M357.985,61.131l-2.611,0.676c-0.385,0.098-0.918,0.193-1.305,0.193
				c-1.738,0-3.236-1.449-3.236-3.189c0-1.498,0.967-2.754,2.465-3.189l4.783-1.4c1.4-0.387,2.463-0.629,3.479-0.629h0.098
				c2.029,0,3.672,1.643,3.672,3.674V84.52c0,2.029-1.643,3.672-3.672,3.672c-2.031,0-3.672-1.643-3.672-3.672V61.131z"/>
			<path id="XMLID_24_" fill="#0094D4" d="M361.657,89.092c-2.521,0-4.572-2.051-4.572-4.572V62.294l-1.485,0.385
				c-0.208,0.053-0.922,0.222-1.53,0.222c-2.242,0-4.137-1.873-4.137-4.09c0-1.913,1.222-3.504,3.113-4.055l4.782-1.399
				c1.53-0.423,2.625-0.665,3.731-0.665c2.619,0,4.67,2.052,4.67,4.574V84.52C366.229,87.041,364.179,89.092,361.657,89.092z
				 M358.886,59.968V84.52c0,1.528,1.243,2.771,2.771,2.771s2.771-1.243,2.771-2.771V57.266c0-1.529-1.243-2.773-2.771-2.773
				c-1,0-1.969,0.219-3.336,0.597l-4.771,1.396c-1.104,0.321-1.817,1.233-1.817,2.325c0,1.219,1.092,2.289,2.336,2.289
				c0.258,0,0.692-0.067,1.083-0.166L358.886,59.968z"/>
		</g>
		<g id="XMLID_17_">
			<path id="XMLID_21_" fill="#0094D4" d="M373.786,80.652l9.617-7.875c4.205-3.432,5.848-5.316,5.848-8.119
				c0-2.852-1.885-4.398-4.543-4.398c-2.127,0-3.625,0.918-5.51,2.949c-0.482,0.531-1.352,1.063-2.512,1.063
				c-1.885,0-3.383-1.498-3.383-3.383c0-0.82,0.338-1.691,0.869-2.318c2.707-3.143,5.896-4.979,11.018-4.979
				c7.008,0,11.646,4.107,11.646,10.438v0.098c0,5.654-2.898,8.457-8.891,13.096l-5.51,4.252h11.791
				c1.789,0,3.238,1.449,3.238,3.238c0,1.787-1.449,3.189-3.238,3.189h-18.363c-2.318,0-4.01-1.307-4.01-3.529
				C371.854,82.924,372.53,81.668,373.786,80.652z"/>
			<path id="XMLID_18_" fill="#0094D4" d="M394.228,88.803h-18.363c-2.938,0-4.91-1.78-4.91-4.43c0-1.693,0.783-3.223,2.266-4.421
				l9.613-7.872c4.331-3.535,5.518-5.13,5.518-7.422c0-2.223-1.328-3.498-3.643-3.498c-1.758,0-3.026,0.696-4.85,2.661
				c-0.364,0.401-1.416,1.351-3.172,1.351c-2.402,0-4.283-1.881-4.283-4.283c0-1.017,0.404-2.101,1.082-2.9
				c3.157-3.665,6.766-5.297,11.705-5.297c7.505,0,12.547,4.557,12.547,11.338c0,6.097-2.959,9.043-9.239,13.905l-3.42,2.64h9.149
				c2.282,0,4.139,1.856,4.139,4.139C398.366,86.968,396.51,88.803,394.228,88.803z M384.708,59.359c3.307,0,5.443,2.08,5.443,5.299
				c0,3.229-1.906,5.33-6.179,8.817l-9.616,7.874c-1.063,0.86-1.602,1.876-1.602,3.023c0,1.938,1.606,2.629,3.109,2.629h18.363
				c1.311,0,2.338-1.006,2.338-2.289c0-1.289-1.049-2.338-2.338-2.338h-14.433l7.602-5.865c5.938-4.597,8.54-7.157,8.54-12.383
				c0-5.891-4.219-9.635-10.746-9.635c-4.427,0-7.519,1.396-10.335,4.666c-0.399,0.472-0.651,1.137-0.651,1.73
				c0,1.392,1.091,2.482,2.482,2.482c1.065,0,1.682-0.588,1.845-0.768C380.341,60.653,382.08,59.359,384.708,59.359z"/>
		</g>
	</g>
	<g id="XMLID_3_">
		<g id="XMLID_4_">
			<ellipse id="XMLID_15_" fill="#FFFFFF" cx="66.049" cy="71.174" rx="48.583" ry="47.355"/>
			<g id="XMLID_8_">
				<g id="XMLID_12_">
					<path id="XMLID_14_" fill="#604787" d="M86.355,87.364c-3.16,0-1.91,3.226-5.218,7.149c-0.016,0.02-0.037,0.037-0.054,0.057
						c-1.927,2.253-4.641,3.351-8.185,3.351c-8.002,0-11.786-5.564-11.786-17.493c0-11.867,3.746-17.375,11.658-17.436
						c0.033,0,0.063-0.006,0.097-0.006c0.005,0,0.01,0.001,0.015,0.001c0.006,0,0.011-0.001,0.017-0.001
						c4.757,0,8.012,1.965,9.879,6.051c0.029,0.061,0.056,0.119,0.081,0.178c0.125,0.283,0.243,0.574,0.355,0.877
						c0.638,1.441,1.672,2.204,3.395,1.809c1.618-0.379,2.793-2.672,0.527-7.578c-1.486-3.21-5.525-7.611-12.002-8.428
						c-4.836-0.607-8.553,2.271-10.161,2.025c-1.624-0.255-0.823-2.469-0.017-6.271c1.037-4.858,3.294-8.996,4.293-10.945
						c0.523-1.023,0.982-1.959,0.967-2.973c-0.02-1.854-1.481-3.535-3.932-3.535c-2.821,0-6.124,4.857-8.355,11.686
						c-1.575,4.801-2.145,10.462-2.405,13.031c-0.303,2.89-0.179,4.277-1.508,4.277c-1.427,0-0.924-2.215-0.716-5.986
						c0.085-1.531,0.263-4.535,0.716-7.115c0.275-1.576,0.587-3.088,0.051-4.298c-0.343-0.778-1.115-1.675-2.533-1.763
						c-3.255-0.209-5.246,4.928-5.638,10.81c-0.32,4.761-0.542,6.846-0.475,11.483c0.047,3.443,0.189,5.155-1.221,5.155
						c-1.373,0-1.254-1.848-1.247-3.935c0.011-1.828,0.011-3.916,0.099-4.941c0.223-2.524,0.472-4.623,0.472-6.592
						c0-1.063-0.775-2.34-2.696-2.199c-3.584,0.271-3.488,8.805-3.822,13.865c-0.729,10.972,2.607,22.75,6.896,28.085
						c8.7,10.8,17.205,11.987,24.11,11.996c8.664,0,13.688-1.953,17.802-7.48C91.227,92.985,90.078,87.364,86.355,87.364z"/>
					<path id="XMLID_13_" fill="#0094D4" d="M72.899,92.55c3.834,0,4.887-3.354,4.887-12.122c0-8.766-1.053-12.078-4.887-12.078
						c-3.831,0-4.887,3.313-4.887,12.078C68.013,89.196,69.068,92.55,72.899,92.55z"/>
				</g>
				<g id="XMLID_9_">
					<path id="XMLID_11_" fill="#604787" d="M83.508,73.58c-0.369,0-0.737,0.082-1.221,0.215l-1.484,0.436
						c-0.673,0.194-1.125,0.785-1.125,1.469c0,0.809,0.689,1.49,1.505,1.49c0.202,0,0.435-0.052,0.531-0.076l0.184-0.047v6.613
						c0,0.904,0.735,1.64,1.64,1.64s1.641-0.735,1.641-1.64v-8.46C85.178,74.315,84.441,73.58,83.508,73.58z"/>
					<path id="XMLID_10_" fill="#604787" d="M93.647,82.234h-2.194l0.55-0.424c1.838-1.424,2.954-2.434,2.954-4.49
						c0-2.237-1.653-3.74-4.114-3.74c-1.604,0-2.775,0.53-3.802,1.722c-0.243,0.288-0.389,0.677-0.389,1.043
						c0,0.854,0.695,1.55,1.55,1.55c0.445,0,0.864-0.18,1.146-0.489c0.524-0.565,0.863-0.755,1.344-0.755
						c0.415,0,0.91,0.149,0.91,0.864c0,0.63-0.351,1.088-1.632,2.134l-2.981,2.441c-0.515,0.416-0.787,0.949-0.787,1.545
						c0,0.939,0.718,1.595,1.745,1.595h5.7c0.83,0,1.505-0.669,1.505-1.489C95.152,82.91,94.478,82.234,93.647,82.234z"/>
				</g>
			</g>
			<path id="XMLID_5_" fill="#0094D4" d="M66.048,125.187c-29.808,0-54.055-24.244-54.055-54.043
				c0-29.813,24.247-54.063,54.055-54.063s54.054,24.25,54.054,54.063C120.102,100.942,95.855,125.187,66.048,125.187z
				 M66.048,26.959c-24.361,0-44.179,19.819-44.179,44.185c0,24.356,19.817,44.176,44.179,44.176
				c24.362,0,44.183-19.819,44.183-44.176C110.23,46.778,90.41,26.959,66.048,26.959z"/>
		</g>
	</g>
</g>
</svg>