<?xml version="1.0" encoding="iso-8859-1"?>
<!-- Generator: Adobe Illustrator 19.0.0, SVG Export Plug-In . SVG Version: 6.00 Build 0)  -->
<svg version="1.1" id="Capa_1" xmlns="http://www.w3.org/2000/svg" xmlns:xlink="http://www.w3.org/1999/xlink" x="0px" y="0px"
	 viewBox="0 0 511.972 511.972" style="enable-background:new 0 0 511.972 511.972;" xml:space="preserve">
<g>
	<g>
		<path d="M68.233,355.966h-0.078c-2.21,0-3.96,1.789-3.96,3.999c0,2.211,1.832,4,4.039,4c2.211,0,4-1.79,3.999-4
			C72.233,357.755,70.444,355.966,68.233,355.966z"/>
	</g>
</g>
<g>
	<g>
		<path d="M84.234,371.965h-0.078c-2.211,0-3.961,1.789-3.961,4s1.832,4,4.039,4c2.21,0,4-1.789,4-4S86.444,371.965,84.234,371.965z
			"/>
	</g>
</g>
<g>
	<g>
		<path d="M116.232,371.965h-0.078c-2.211,0-3.961,1.789-3.961,4s1.832,4,4.039,4c2.211,0,4-1.789,4-4
			S118.442,371.965,116.232,371.965z"/>
	</g>
</g>
<g>
	<g>
		<path d="M100.232,355.966h-0.078c-2.21,0-3.96,1.789-3.96,3.999c0,2.211,1.832,4,4.039,4c2.211,0,3.999-1.79,3.999-4
			C104.232,357.755,102.443,355.966,100.232,355.966z"/>
	</g>
</g>
<g>
	<g>
		<path d="M132.231,355.966h-0.078c-2.211,0-3.961,1.789-3.961,3.999c0,2.211,1.832,4,4.039,4c2.211,0,4-1.79,4-4
			C136.231,357.755,134.442,355.966,132.231,355.966z"/>
	</g>
</g>
<g>
	<g>
		<path d="M148.23,371.965h-0.078c-2.211,0-3.961,1.789-3.961,4s1.832,4,4.039,4c2.211,0,4-1.789,4-4
			S150.441,371.965,148.23,371.965z"/>
	</g>
</g>
<g>
	<g>
		<path d="M180.228,371.965h-0.078c-2.211,0-3.961,1.789-3.961,4s1.832,4,4.039,4c2.211,0,4-1.789,4-4
			S182.439,371.965,180.228,371.965z"/>
	</g>
</g>
<g>
	<g>
		<path d="M164.229,355.966h-0.078c-2.211,0-3.961,1.789-3.961,3.999c0,2.211,1.832,4,4.039,4c2.211,0,4-1.79,4-4
			C168.229,357.755,166.44,355.966,164.229,355.966z"/>
	</g>
</g>
<g>
	<g>
		<path d="M196.226,355.966h-0.078c-2.21,0-3.96,1.789-3.96,3.999c0,2.211,1.832,4,4.039,4c2.211,0,4-1.79,3.999-4
			C200.226,357.755,198.437,355.966,196.226,355.966z"/>
	</g>
</g>
<g>
	<g>
		<path d="M212.227,371.965h-0.078c-2.211,0-3.961,1.789-3.961,4s1.832,4,4.039,4c2.21,0,4-1.789,4-4
			S214.437,371.965,212.227,371.965z"/>
	</g>
</g>
<g>
	<g>
		<path d="M244.225,371.965h-0.078c-2.211,0-3.961,1.789-3.961,4s1.832,4,4.039,4c2.211,0,4-1.789,4-4
			S246.435,371.965,244.225,371.965z"/>
	</g>
</g>
<g>
	<g>
		<path d="M228.225,355.966h-0.078c-2.21,0-3.96,1.789-3.96,3.999c0,2.211,1.832,4,4.039,4c2.211,0,3.999-1.79,3.999-4
			C232.225,357.755,230.436,355.966,228.225,355.966z"/>
	</g>
</g>
<g>
	<g>
		<path d="M260.224,355.966h-0.078c-2.211,0-3.961,1.789-3.961,3.999c0,2.211,1.832,4,4.039,4c2.211,0,4.004-1.79,4.004-4
			C264.228,357.755,262.435,355.966,260.224,355.966z"/>
	</g>
</g>
<g>
	<g>
		<path d="M276.227,371.965h-0.086c-2.203,0-3.953,1.789-3.953,4s1.828,4,4.039,4c2.203,0,4-1.789,4-4
			S278.43,371.965,276.227,371.965z"/>
	</g>
</g>
<g>
	<g>
		<path d="M308.225,371.965h-0.086c-2.203,0-3.953,1.789-3.953,4s1.828,4,4.039,4c2.203,0,4-1.789,4-4
			S310.428,371.965,308.225,371.965z"/>
	</g>
</g>
<g>
	<g>
		<path d="M292.226,355.966h-0.086c-2.203,0-3.953,1.789-3.953,3.999c0,2.211,1.828,4,4.039,4c2.203,0,4-1.79,4-4
			C296.226,357.755,294.429,355.966,292.226,355.966z"/>
	</g>
</g>
<g>
	<g>
		<path d="M331.982,11.984H4c-2.211,0-4,1.789-4,4v327.982c0,2.21,1.789,3.999,4,3.999h327.982c2.211,0,4-1.789,4-3.999V15.984
			C335.982,13.773,334.193,11.984,331.982,11.984z M327.982,339.966H7.999V19.983h319.983V339.966z"/>
	</g>
</g>
<g>
	<g>
		<path d="M379.979,203.974c-2.211,0-3.999,1.789-3.999,4v179.99H51.997c-2.211,0-4,1.789-4,4s1.789,3.999,4,3.999h327.982
			c2.211,0,4-1.789,4-3.999v-183.99C383.979,205.763,382.19,203.974,379.979,203.974z"/>
	</g>
</g>
<g>
	<g>
		<path d="M54.825,389.136L6.828,341.139c-1.562-1.562-4.094-1.562-5.656,0c-1.562,1.562-1.562,4.093,0,5.655l47.997,47.998
			c0.781,0.78,1.805,1.171,2.828,1.171s2.047-0.391,2.828-1.171C56.387,393.23,56.387,390.698,54.825,389.136z"/>
	</g>
</g>
<g>
	<g>
		<path d="M382.807,389.136l-47.997-47.997c-1.562-1.562-4.094-1.562-5.656,0s-1.562,4.093,0,5.655l47.997,47.998
			c0.781,0.78,1.805,1.171,2.828,1.171c1.024,0,2.047-0.391,2.828-1.171C384.369,393.23,384.369,390.698,382.807,389.136z"/>
	</g>
</g>
<g>
	<g>
		<path d="M382.807,61.153L334.81,13.155c-1.562-1.562-4.094-1.563-5.656,0s-1.562,4.094,0,5.656l47.997,47.998
			c0.781,0.781,1.805,1.172,2.828,1.172c1.024,0,2.047-0.391,2.828-1.172C384.369,65.247,384.369,62.715,382.807,61.153z"/>
	</g>
</g>
<g>
	<g>
		<path d="M167.991,67.98c-25.706,0-49.88,8.469-69.91,24.491c-1.723,1.383-2.004,3.898-0.625,5.625
			c0.793,0.988,1.952,1.5,3.128,1.5c0.875,0,1.758-0.285,2.496-0.875c18.593-14.878,41.041-22.741,64.911-22.741
			c2.211,0,4-1.789,4-4S170.202,67.98,167.991,67.98z"/>
	</g>
</g>
<g>
	<g>
		<path d="M86.511,108.977c-1.715-1.386-4.238-1.125-5.625,0.594c-16.05,19.835-24.889,44.838-24.889,70.403c0,2.211,1.789,4,4,4
			c2.21,0,3.999-1.789,4-4c0-23.741,8.207-46.955,23.108-65.372C88.495,112.887,88.23,110.368,86.511,108.977z"/>
	</g>
</g>
<g>
	<g>
		<path d="M167.991,51.982c-29.663,0-58.579,10.378-81.418,29.225c-1.703,1.406-1.945,3.929-0.539,5.632
			c0.793,0.957,1.934,1.453,3.09,1.453c0.894,0,1.797-0.301,2.543-0.913c21.409-17.667,48.512-27.397,76.324-27.397
			c2.211,0,4-1.789,4-4S170.202,51.982,167.991,51.982z"/>
	</g>
</g>
<g>
	<g>
		<path d="M74.78,98.103c-1.715-1.414-4.231-1.156-5.629,0.543c-18.8,22.827-29.154,51.712-29.154,81.328c0,2.211,1.79,4,4,4
			c2.211,0,4-1.789,3.999-4.001c0-27.768,9.707-54.845,27.327-76.242C76.729,102.025,76.487,99.505,74.78,98.103z"/>
	</g>
</g>
<g>
	<g>
		<path d="M167.99,83.981c-21.346,0-41.56,6.862-58.45,19.842c-1.75,1.348-2.082,3.859-0.734,5.609
			c0.789,1.023,1.977,1.562,3.176,1.562c0.848,0,1.707-0.27,2.433-0.826c15.479-11.898,34.006-18.187,53.575-18.187
			c2.211,0,4-1.79,4-4C171.99,85.77,170.201,83.981,167.99,83.981z"/>
	</g>
</g>
<g>
	<g>
		<path d="M97.448,120.79c-1.754-1.348-4.261-1.023-5.609,0.734c-12.98,16.89-19.843,37.099-19.843,58.45c0,2.211,1.789,4,4,4
			s3.999-1.789,3.999-4c0-19.57,6.289-38.096,18.187-53.576C99.53,124.649,99.198,122.137,97.448,120.79z"/>
	</g>
</g>
<g>
	<g>
		<path d="M167.991,99.979c-16.991,0-33.221,5.257-46.931,15.206c-1.789,1.297-2.188,3.801-0.891,5.586
			c0.782,1.078,2.004,1.652,3.242,1.652c0.812,0,1.637-0.246,2.344-0.761c12.339-8.953,26.944-13.683,42.236-13.683
			c2.211,0,4-1.789,4-4S170.202,99.979,167.991,99.979z"/>
	</g>
</g>
<g>
	<g>
		<path d="M108.795,132.16c-1.801-1.304-4.289-0.898-5.59,0.887c-9.948,13.702-15.21,29.931-15.21,46.927c0,2.211,1.789,4,4,4
			s4-1.789,4-4c0-15.296,4.73-29.897,13.687-42.224C110.979,135.961,110.58,133.461,108.795,132.16z"/>
	</g>
</g>
<g>
	<g>
		<path d="M167.991,115.978c-12.617,0-24.819,3.668-35.291,10.601c-1.844,1.223-2.348,3.703-1.129,5.543
			c0.769,1.164,2.043,1.793,3.339,1.793c0.758,0,1.524-0.215,2.204-0.664c9.159-6.066,19.838-9.273,30.877-9.273c2.211,0,4-1.79,4-4
			C171.991,117.767,170.202,115.978,167.991,115.978z"/>
	</g>
</g>
<g>
	<g>
		<path d="M120.141,143.554c-1.847-1.227-4.327-0.715-5.542,1.128c-6.937,10.493-10.605,22.695-10.605,35.292c0,2.211,1.789,4,4,4
			s4-1.789,3.999-4.001c0-11.023,3.207-21.702,9.276-30.877C122.488,147.253,121.984,144.772,120.141,143.554z"/>
	</g>
</g>
<g>
	<g>
		<path d="M167.991,131.977c-8.187,0-16.28,2.106-23.405,6.086c-1.93,1.078-2.621,3.515-1.543,5.445
			c0.734,1.308,2.094,2.046,3.496,2.046c0.66,0,1.328-0.164,1.945-0.507c5.937-3.316,12.683-5.07,19.507-5.07c2.211,0,4-1.789,4-4
			S170.202,131.977,167.991,131.977z"/>
	</g>
</g>
<g>
	<g>
		<path d="M131.52,155.03c-1.937-1.086-4.363-0.391-5.445,1.539c-3.977,7.109-6.082,15.202-6.082,23.405c0,2.211,1.789,4,4,4
			s4-1.789,4-4c0-6.835,1.75-13.578,5.066-19.499C134.137,158.549,133.45,156.112,131.52,155.03z"/>
	</g>
</g>
<g>
	<g>
		<path d="M167.991,147.977c-3.668,0-7.285,0.625-10.742,1.855c-2.078,0.742-3.164,3.031-2.426,5.113
			c0.586,1.636,2.125,2.656,3.769,2.656c0.446,0,0.899-0.074,1.344-0.229c2.594-0.926,5.305-1.395,8.055-1.395c2.211,0,4-1.789,4-4
			S170.202,147.977,167.991,147.977z"/>
	</g>
</g>
<g>
	<g>
		<path d="M142.953,166.798c-2.106-0.742-4.371,0.344-5.113,2.426c-1.227,3.446-1.848,7.062-1.848,10.75c0,2.211,1.79,4,4,4
			c2.211,0,4-1.789,4-4.001c0-2.773,0.465-5.484,1.387-8.062C146.117,169.829,145.031,167.54,142.953,166.798z"/>
	</g>
</g>
<g>
	<g>
		<path d="M107.994,51.981H67.996c-2.211,0-4,1.789-4,4s1.79,4,4,4h39.998c2.211,0,4-1.789,4-4S110.205,51.981,107.994,51.981z"/>
	</g>
</g>
<g>
	<g>
		<path d="M43.997,75.98c-2.211,0-4,1.789-4,4v39.998c0,2.211,1.79,4,4,4c2.211,0,4-1.789,4-4V79.98
			C47.997,77.769,46.208,75.98,43.997,75.98z"/>
	</g>
</g>
<g>
	<g>
		<path d="M43.997,43.982c-6.617,0-12,5.382-12,11.999c0,6.618,5.383,12,12,12s12-5.383,12-12S50.614,43.982,43.997,43.982z
			 M43.997,59.982c-2.207,0-4-1.792-4-4c0-2.208,1.793-4,4-4c2.207,0,4,1.793,4,4C47.997,58.189,46.204,59.982,43.997,59.982z"/>
	</g>
</g>
<g>
	<g>
		<path d="M158.819,165.147L52.477,58.809c-1.563-1.562-4.094-1.562-5.656,0c-1.562,1.562-1.562,4.094,0,5.656l106.342,106.338
			c0.781,0.781,1.805,1.172,2.828,1.172c1.024,0,2.047-0.39,2.828-1.172C160.381,169.241,160.381,166.709,158.819,165.147z"/>
	</g>
</g>
<g>
	<g>
		<path d="M255.494,110.063c-1.379-1.715-3.895-2.012-5.625-0.625c-1.722,1.383-2.003,3.898-0.625,5.625
			c14.875,18.593,22.741,41.041,22.741,64.911c0,2.211,1.789,4,4,4s4-1.789,4-4C279.985,154.268,271.516,130.093,255.494,110.063z"
			/>
	</g>
</g>
<g>
	<g>
		<path d="M238.393,92.869c-19.839-16.05-44.841-24.889-70.402-24.889c-2.211,0-4,1.79-4,4c0,2.211,1.789,4,4,4
			c23.737,0,46.95,8.207,65.371,23.108c0.742,0.598,1.629,0.891,2.512,0.891c1.168,0,2.324-0.508,3.113-1.485
			C240.377,96.775,240.112,94.26,238.393,92.869z"/>
	</g>
</g>
<g>
	<g>
		<path d="M266.76,98.557c-1.399-1.695-3.922-1.937-5.633-0.539c-1.703,1.406-1.945,3.925-0.539,5.632
			c17.67,21.413,27.396,48.517,27.396,76.324c0,2.211,1.789,4,4,4c2.211,0,4-1.789,4.001-4
			C295.985,150.316,285.602,121.399,266.76,98.557z"/>
	</g>
</g>
<g>
	<g>
		<path d="M249.318,81.136c-22.827-18.8-51.712-29.155-81.327-29.155c-2.211,0-4,1.789-4,4s1.789,4,4,4
			c27.767,0,54.845,9.707,76.242,27.327c0.746,0.617,1.644,0.914,2.539,0.914c1.156,0,2.3-0.496,3.089-1.458
			C251.267,85.057,251.025,82.538,249.318,81.136z"/>
	</g>
</g>
<g>
	<g>
		<path d="M244.142,121.524c-1.343-1.742-3.843-2.078-5.609-0.734c-1.75,1.347-2.082,3.855-0.734,5.608
			c11.898,15.484,18.187,34.011,18.187,53.576c0,2.211,1.789,4,4,4s4-1.789,4-3.999
			C263.986,158.632,257.123,138.419,244.142,121.524z"/>
	</g>
</g>
<g>
	<g>
		<path d="M226.441,103.821c-16.894-12.98-37.107-19.842-58.45-19.842c-2.211,0-4,1.789-4,4s1.789,4,4,4
			c19.565,0,38.092,6.29,53.575,18.187c0.727,0.558,1.586,0.828,2.434,0.828c1.199,0,2.386-0.539,3.175-1.564
			C228.523,107.676,228.191,105.169,226.441,103.821z"/>
	</g>
</g>
<g>
	<g>
		<path d="M232.78,133.043c-1.296-1.782-3.804-2.192-5.585-0.891c-1.789,1.297-2.187,3.801-0.891,5.586
			c8.953,12.339,13.683,26.944,13.683,42.236c0,2.211,1.789,4,4,4c2.21,0,3.999-1.789,4-4
			C247.987,162.982,242.729,146.753,232.78,133.043z"/>
	</g>
</g>
<g>
	<g>
		<path d="M214.922,115.192c-13.71-9.953-29.936-15.214-46.931-15.214c-2.211,0-4,1.79-4,4c0,2.211,1.789,4,4,4
			c15.292,0,29.896,4.734,42.228,13.691c0.711,0.516,1.535,0.762,2.347,0.762c1.238,0,2.457-0.57,3.243-1.649
			C217.106,118.993,216.707,116.493,214.922,115.192z"/>
	</g>
</g>
<g>
	<g>
		<path d="M221.382,144.683c-1.223-1.843-3.703-2.355-5.543-1.128c-1.844,1.222-2.348,3.702-1.129,5.542
			c6.07,9.163,9.277,19.842,9.277,30.877c0,2.211,1.79,4,4,4c2.211,0,4-1.789,3.999-3.999
			C231.986,167.362,228.319,155.16,221.382,144.683z"/>
	</g>
</g>
<g>
	<g>
		<path d="M203.282,126.579c-10.488-6.937-22.694-10.601-35.291-10.601c-2.211,0-4,1.789-4,4s1.789,4,4,4
			c11.026,0,21.702,3.207,30.877,9.273c0.68,0.449,1.445,0.664,2.203,0.664c1.297,0,2.57-0.629,3.34-1.793
			C205.63,130.278,205.126,127.798,203.282,126.579z"/>
	</g>
</g>
<g>
	<g>
		<path d="M209.902,156.569c-1.078-1.922-3.519-2.617-5.445-1.539c-1.93,1.082-2.617,3.519-1.539,5.445
			c3.317,5.925,5.07,12.667,5.07,19.499c0,2.211,1.789,4,4,4s4-1.789,3.999-4C215.987,171.775,213.882,163.681,209.902,156.569z"/>
	</g>
</g>
<g>
	<g>
		<path d="M191.4,138.066c-7.109-3.985-15.203-6.09-23.409-6.09c-2.211,0-4,1.789-4,4s1.789,4,4,4
			c6.839,0,13.581,1.754,19.495,5.066c0.621,0.348,1.293,0.512,1.953,0.512c1.402,0,2.761-0.734,3.492-2.043
			C194.013,141.581,193.326,139.144,191.4,138.066z"/>
	</g>
</g>
<g>
	<g>
		<path d="M198.137,169.233c-0.746-2.082-3.028-3.168-5.113-2.426c-2.078,0.742-3.164,3.031-2.426,5.113
			c0.922,2.586,1.391,5.296,1.391,8.054c0,2.211,1.79,4,4,4c2.211,0,4-1.789,4-3.999
			C199.989,176.299,199.364,172.686,198.137,169.233z"/>
	</g>
</g>
<g>
	<g>
		<path d="M178.739,149.824c-3.445-1.227-7.062-1.848-10.749-1.848c-2.211,0-4,1.789-4,4s1.789,4,4,4
			c2.774,0,5.484,0.465,8.062,1.387c0.446,0.156,0.899,0.23,1.344,0.23c1.645,0,3.184-1.019,3.769-2.656
			C181.903,152.855,180.817,150.566,178.739,149.824z"/>
	</g>
</g>
<g>
	<g>
		<path d="M291.984,75.98c-2.211,0-4,1.789-4,4v39.998c0,2.211,1.789,4,4,4c2.211,0,4-1.789,4-4V79.98
			C295.984,77.769,294.195,75.98,291.984,75.98z"/>
	</g>
</g>
<g>
	<g>
		<path d="M267.985,51.981h-39.998c-2.211,0-4,1.789-4,4s1.79,4,4,4h39.998c2.211,0,4-1.789,4-4S270.196,51.981,267.985,51.981z"/>
	</g>
</g>
<g>
	<g>
		<path d="M291.984,43.982c-6.617,0-11.999,5.382-11.999,11.999c0,6.618,5.382,12,11.999,12s12-5.383,12-12
			S298.601,43.982,291.984,43.982z M291.984,59.982c-2.203,0-4-1.792-4-4c0-2.208,1.797-4,4-4s4,1.793,4,4
			C295.984,58.189,294.187,59.982,291.984,59.982z"/>
	</g>
</g>
<g>
	<g>
		<path d="M289.156,58.809c-1.562-1.562-4.094-1.562-5.656,0L177.162,165.147c-1.562,1.562-1.562,4.094,0,5.656
			c0.781,0.781,1.805,1.172,2.828,1.172c1.023,0,2.047-0.39,2.828-1.172L289.156,64.465
			C290.718,62.903,290.718,60.371,289.156,58.809z"/>
	</g>
</g>
<g>
	<g>
		<path d="M238.526,261.853c-1.383-1.727-3.891-2.004-5.625-0.625c-18.593,14.874-41.04,22.741-64.91,22.741
			c-2.211,0-4,1.788-4,3.999s1.789,4,4,4c25.705,0,49.88-8.467,69.91-24.49C239.624,266.095,239.905,263.58,238.526,261.853z"/>
	</g>
</g>
<g>
	<g>
		<path d="M275.985,175.973c-2.211,0-4,1.789-4,4c0,23.741-8.206,46.955-23.108,65.372c-1.391,1.715-1.125,4.234,0.593,5.625
			c0.739,0.598,1.629,0.891,2.512,0.891c1.168,0,2.324-0.507,3.113-1.486c16.054-19.834,24.89-44.837,24.89-70.402
			C279.985,177.762,278.196,175.973,275.985,175.973z"/>
	</g>
</g>
<g>
	<g>
		<path d="M249.947,273.11c-1.41-1.702-3.925-1.952-5.632-0.539c-21.409,17.67-48.513,27.397-76.324,27.397c-2.211,0-4,1.789-4,4
			s1.789,4,4,4c29.662,0,58.578-10.382,81.417-29.225C251.111,277.337,251.353,274.813,249.947,273.11z"/>
	</g>
</g>
<g>
	<g>
		<path d="M291.984,175.974c-2.211,0-4,1.789-4,4c0,27.768-9.702,54.845-27.326,76.242c-1.406,1.707-1.164,4.227,0.543,5.629
			c0.746,0.617,1.644,0.914,2.539,0.914c1.152,0,2.301-0.496,3.09-1.457c18.802-22.828,29.154-51.712,29.154-81.328
			C295.984,177.763,294.195,175.974,291.984,175.974z"/>
	</g>
</g>
<g>
	<g>
		<path d="M227.175,250.517c-1.343-1.741-3.847-2.077-5.609-0.734c-15.479,11.898-34.006,18.187-53.575,18.187c-2.211,0-4,1.789-4,4
			c0,2.21,1.789,3.999,4,3.999c21.347,0,41.56-6.858,58.45-19.843C228.191,254.778,228.523,252.267,227.175,250.517z"/>
	</g>
</g>
<g>
	<g>
		<path d="M259.986,175.975c-2.211,0-4,1.789-4,4c0,19.569-6.289,38.095-18.187,53.575c-1.348,1.75-1.016,4.261,0.734,5.609
			c0.727,0.558,1.582,0.828,2.434,0.828c1.2,0,2.387-0.539,3.176-1.562c12.98-16.89,19.843-37.1,19.843-58.45
			C263.986,177.764,262.197,175.975,259.986,175.975z"/>
	</g>
</g>
<g>
	<g>
		<path d="M215.812,239.178c-1.296-1.789-3.804-2.196-5.585-0.891c-12.34,8.953-26.944,13.683-42.236,13.683c-2.211,0-4,1.789-4,4
			s1.789,4,4,4c16.991,0,33.221-5.257,46.93-15.206C216.71,243.467,217.109,240.963,215.812,239.178z"/>
	</g>
</g>
<g>
	<g>
		<path d="M243.986,175.974c-2.211,0-4,1.789-4,4c0,15.296-4.73,29.897-13.687,42.224c-1.296,1.789-0.898,4.289,0.887,5.59
			c0.711,0.516,1.536,0.762,2.348,0.762c1.239,0,2.457-0.57,3.242-1.649c9.949-13.702,15.21-29.932,15.21-46.927
			C247.986,177.763,246.196,175.974,243.986,175.974z"/>
	</g>
</g>
<g>
	<g>
		<path d="M204.411,227.828c-1.223-1.848-3.711-2.352-5.543-1.129c-9.16,6.065-19.839,9.272-30.877,9.272c-2.211,0-4,1.789-4,4
			s1.789,4,4,4c12.616,0,24.819-3.668,35.291-10.601C205.126,232.148,205.63,229.668,204.411,227.828z"/>
	</g>
</g>
<g>
	<g>
		<path d="M227.988,175.976c-2.211,0-4,1.789-4,4c0,11.023-3.207,21.701-9.277,30.877c-1.219,1.843-0.715,4.323,1.129,5.542
			c0.68,0.449,1.445,0.664,2.203,0.664c1.297,0,2.57-0.629,3.341-1.792c6.937-10.492,10.604-22.694,10.604-35.291
			C231.988,177.765,230.199,175.976,227.988,175.976z"/>
	</g>
</g>
<g>
	<g>
		<path d="M192.939,216.441c-1.078-1.922-3.515-2.617-5.441-1.539c-5.938,3.316-12.683,5.07-19.507,5.07c-2.211,0-4,1.789-4,4
			s1.789,4,4,4c8.186,0,16.28-2.105,23.405-6.086C193.326,220.808,194.017,218.37,192.939,216.441z"/>
	</g>
</g>
<g>
	<g>
		<path d="M211.989,175.974c-2.211,0-4,1.789-4,4c0,6.836-1.75,13.578-5.066,19.499c-1.078,1.925-0.391,4.363,1.539,5.445
			c0.617,0.344,1.289,0.508,1.949,0.508c1.402,0,2.761-0.738,3.496-2.047c3.977-7.109,6.082-15.202,6.082-23.405
			C215.989,177.763,214.199,175.974,211.989,175.974z"/>
	</g>
</g>
<g>
	<g>
		<path d="M181.158,205.004c-0.746-2.078-3.019-3.16-5.113-2.426c-2.594,0.926-5.304,1.395-8.054,1.395c-2.211,0-4,1.789-4,4
			s1.789,4,4,4c3.667,0,7.285-0.625,10.741-1.856C180.81,209.375,181.896,207.086,181.158,205.004z"/>
	</g>
</g>
<g>
	<g>
		<path d="M195.99,175.976c-2.211,0-4,1.789-4,4c0,2.773-0.465,5.484-1.387,8.062c-0.738,2.082,0.348,4.371,2.426,5.113
			c0.445,0.156,0.898,0.23,1.343,0.23c1.644,0,3.183-1.02,3.77-2.655c1.227-3.446,1.848-7.063,1.848-10.75
			C199.99,177.765,198.201,175.976,195.99,175.976z"/>
	</g>
</g>
<g>
	<g>
		<path d="M267.985,299.968h-39.998c-2.211,0-4,1.789-4,4s1.79,4,4,4h39.998c2.211,0,4-1.789,4-4S270.196,299.968,267.985,299.968z"
			/>
	</g>
</g>
<g>
	<g>
		<path d="M291.984,235.971c-2.211,0-4,1.789-4,4v39.998c0,2.211,1.789,4,4,4c2.211,0,4-1.789,4-4v-39.998
			C295.984,237.76,294.195,235.971,291.984,235.971z"/>
	</g>
</g>
<g>
	<g>
		<path d="M291.984,291.968c-6.617,0-11.999,5.383-11.999,12c0,6.616,5.382,11.999,11.999,11.999s12-5.382,12-11.999
			S298.601,291.968,291.984,291.968z M291.984,307.968c-2.203,0-4-1.797-4-4s1.797-4,4-4s4,1.797,4,4
			S294.187,307.968,291.984,307.968z"/>
	</g>
</g>
<g>
	<g>
		<path d="M289.164,295.484L182.818,189.146c-1.562-1.562-4.094-1.562-5.656,0c-1.562,1.563-1.562,4.094,0,5.656L283.508,301.14
			c0.781,0.781,1.805,1.172,2.828,1.172c1.023,0,2.046-0.39,2.828-1.172C290.726,299.578,290.726,297.046,289.164,295.484z"/>
	</g>
</g>
<g>
	<g>
		<path d="M86.737,244.886c-14.878-18.593-22.741-41.041-22.741-64.911c0-2.211-1.79-4-4-4c-2.211,0-4,1.789-4,4
			c0,25.705,8.469,49.88,24.491,69.91c0.793,0.984,1.953,1.5,3.129,1.5c0.875,0,1.758-0.285,2.496-0.874
			C87.835,249.128,88.116,246.613,86.737,244.886z"/>
	</g>
</g>
<g>
	<g>
		<path d="M167.992,283.968c-23.738,0-46.951-8.211-65.372-23.108c-1.727-1.383-4.239-1.121-5.625,0.594
			c-1.39,1.719-1.125,4.234,0.594,5.625c19.838,16.054,44.84,24.889,70.402,24.889c2.211,0,4.001-1.79,4.001-4.001
			S170.203,283.968,167.992,283.968z"/>
	</g>
</g>
<g>
	<g>
		<path d="M75.394,256.299c-17.667-21.413-27.397-48.517-27.397-76.324c0-2.211-1.789-4-4-4s-4,1.789-4,4
			c0,29.658,10.378,58.574,29.225,81.417c0.793,0.957,1.934,1.453,3.09,1.453c0.895,0,1.797-0.3,2.543-0.913
			C76.558,260.526,76.8,258.006,75.394,256.299z"/>
	</g>
</g>
<g>
	<g>
		<path d="M167.991,299.968c-27.768,0-54.845-9.703-76.242-27.327c-1.711-1.413-4.231-1.155-5.629,0.547
			c-1.406,1.703-1.164,4.219,0.543,5.625c22.827,18.803,51.712,29.155,81.328,29.155c2.211,0,4-1.789,4-4
			S170.202,299.968,167.991,299.968z"/>
	</g>
</g>
<g>
	<g>
		<path d="M98.182,233.55c-11.898-15.484-18.187-34.01-18.187-53.575c0-2.211-1.789-4-4-4s-4,1.789-4,4
			c0,21.343,6.864,41.556,19.843,58.45c0.789,1.023,1.973,1.562,3.176,1.562c0.848,0,1.707-0.27,2.434-0.828
			C99.197,237.811,99.529,235.304,98.182,233.55z"/>
	</g>
</g>
<g>
	<g>
		<path d="M167.991,267.97c-19.565,0-38.092-6.289-53.575-18.187c-1.754-1.344-4.257-1.008-5.609,0.734
			c-1.348,1.754-1.016,4.261,0.734,5.609c16.893,12.985,37.107,19.843,58.45,19.843c2.211,0,3.999-1.789,4-3.999
			C171.991,269.759,170.202,267.97,167.991,267.97z"/>
	</g>
</g>
<g>
	<g>
		<path d="M109.678,222.211c-8.953-12.339-13.683-26.944-13.683-42.236c0-2.211-1.789-4-4-4s-4,1.789-4,4
			c0,16.991,5.258,33.221,15.206,46.931c0.781,1.078,2.004,1.652,3.242,1.652c0.813,0,1.637-0.246,2.344-0.761
			C110.576,226.5,110.975,223.996,109.678,222.211z"/>
	</g>
</g>
<g>
	<g>
		<path d="M167.991,251.97c-15.292,0-29.897-4.734-42.229-13.691c-1.8-1.301-4.297-0.902-5.589,0.887
			c-1.297,1.789-0.898,4.289,0.887,5.59c13.71,9.952,29.936,15.214,46.931,15.214c2.211,0,4-1.789,4-4
			S170.202,251.97,167.991,251.97z"/>
	</g>
</g>
<g>
	<g>
		<path d="M121.271,210.852c-6.069-9.164-9.276-19.842-9.276-30.877c0-2.211-1.789-4-4-4s-4,1.789-4,4
			c0,12.613,3.667,24.815,10.605,35.291c0.769,1.164,2.042,1.793,3.339,1.793c0.757,0,1.523-0.215,2.204-0.665
			C121.986,215.172,122.49,212.691,121.271,210.852z"/>
	</g>
</g>
<g>
	<g>
		<path d="M167.99,235.971c-11.026,0-21.702-3.206-30.877-9.272c-1.851-1.223-4.323-0.719-5.542,1.129
			c-1.219,1.843-0.715,4.323,1.129,5.542c10.487,6.937,22.694,10.601,35.291,10.601c2.211,0,3.999-1.789,3.999-4
			S170.201,235.971,167.99,235.971z"/>
	</g>
</g>
<g>
	<g>
		<path d="M133.064,199.473c-3.316-5.925-5.07-12.667-5.07-19.499c0-2.211-1.789-4-4-4s-4,1.789-4,4
			c0,8.199,2.105,16.292,6.085,23.405c0.734,1.309,2.094,2.047,3.496,2.047c0.66,0,1.332-0.164,1.95-0.508
			C133.455,203.836,134.142,201.399,133.064,199.473z"/>
	</g>
</g>
<g>
	<g>
		<path d="M167.991,219.972c-6.84,0-13.581-1.754-19.495-5.066c-1.949-1.09-4.371-0.399-5.445,1.531
			c-1.082,1.929-0.395,4.367,1.531,5.445c7.109,3.985,15.202,6.09,23.409,6.09c2.211,0,4-1.789,4-4S170.202,219.972,167.991,219.972
			z"/>
	</g>
</g>
<g>
	<g>
		<path d="M145.383,188.029c-0.922-2.586-1.391-5.297-1.391-8.054c0-2.211-1.789-4-4-4s-4,1.789-4,4
			c0,3.676,0.625,7.289,1.852,10.742c0.586,1.636,2.124,2.656,3.769,2.656c0.445,0,0.898-0.075,1.344-0.231
			C145.035,192.4,146.121,190.111,145.383,188.029z"/>
	</g>
</g>
<g>
	<g>
		<path d="M167.99,203.973c-2.773,0-5.484-0.465-8.062-1.387c-2.106-0.746-4.371,0.344-5.113,2.426
			c-0.738,2.082,0.348,4.371,2.426,5.113c3.445,1.227,7.062,1.848,10.75,1.848c2.211,0,3.999-1.789,3.999-4
			S170.201,203.973,167.99,203.973z"/>
	</g>
</g>
<g>
	<g>
		<path d="M43.997,235.971c-2.211,0-4,1.789-4,4v39.998c0,2.211,1.79,4,4,4c2.211,0,4-1.789,4-4v-39.998
			C47.997,237.76,46.208,235.971,43.997,235.971z"/>
	</g>
</g>
<g>
	<g>
		<path d="M107.994,299.968H67.996c-2.211,0-4,1.789-4,4s1.79,4,4,4h39.998c2.211,0,4-1.789,4-4S110.205,299.968,107.994,299.968z"
			/>
	</g>
</g>
<g>
	<g>
		<path d="M43.997,291.968c-6.617,0-12,5.383-12,12c0,6.616,5.383,11.999,12,11.999s12-5.382,12-11.999
			S50.614,291.968,43.997,291.968z M43.997,307.968c-2.207,0-4-1.797-4-4s1.793-4,4-4c2.207,0,4,1.797,4,4
			S46.204,307.968,43.997,307.968z"/>
	</g>
</g>
<g>
	<g>
		<path d="M158.819,189.146c-1.562-1.562-4.094-1.562-5.656,0L46.825,295.484c-1.562,1.562-1.562,4.094,0,5.656
			c0.782,0.781,1.805,1.172,2.828,1.172s2.047-0.39,2.828-1.172l106.338-106.338C160.381,193.24,160.381,190.708,158.819,189.146z"
			/>
	</g>
</g>
<g>
	<g>
		<path d="M366.808,333.138l-15.999-15.999c-1.562-1.562-4.094-1.562-5.656,0s-1.562,4.093,0,5.655l15.999,16
			c0.781,0.781,1.805,1.172,2.828,1.172c1.024,0,2.047-0.39,2.828-1.172C368.37,337.232,368.37,334.7,366.808,333.138z"/>
	</g>
</g>
<g>
	<g>
		<path d="M363.98,283.969c-2.211,0-4,1.788-4,3.999v47.998c0,2.211,1.789,4,4,4s4-1.789,4-4v-47.998
			C367.98,285.757,366.191,283.969,363.98,283.969z"/>
	</g>
</g>
<g>
	<g>
		<path d="M366.808,285.141l-15.999-15.999c-1.562-1.562-4.094-1.562-5.656,0s-1.562,4.093,0,5.655l15.999,15.999
			c0.781,0.781,1.805,1.172,2.828,1.172c1.024,0,2.047-0.39,2.828-1.172C368.37,289.234,368.37,286.703,366.808,285.141z"/>
	</g>
</g>
<g>
	<g>
		<path d="M347.981,267.97c-2.211,0-4,1.789-4,4v47.997c0,2.211,1.789,3.999,4,3.999s4-1.788,4-3.999V271.97
			C351.981,269.759,350.192,267.97,347.981,267.97z"/>
	</g>
</g>
<g>
	<g>
		<path d="M366.808,309.139l-15.999-15.999c-1.562-1.562-4.094-1.562-5.656,0s-1.562,4.094,0,5.656l15.999,15.999
			c0.781,0.781,1.805,1.172,2.828,1.172c1.024,0,2.047-0.39,2.828-1.172C368.37,313.233,368.37,310.701,366.808,309.139z"/>
	</g>
</g>
<g>
	<g>
		<path d="M459.975,99.978H355.98c-2.21,0-3.999,1.79-3.999,4c0,2.211,1.789,4,3.999,4h103.995c2.211,0,3.999-1.788,3.999-4
			C463.974,101.767,462.186,99.978,459.975,99.978z"/>
	</g>
</g>
<g>
	<g>
		<path d="M459.975,115.978H355.98c-2.21,0-3.999,1.789-3.999,4s1.789,4,3.999,4h103.995c2.211,0,3.999-1.789,3.999-4
			C463.974,117.767,462.186,115.978,459.975,115.978z"/>
	</g>
</g>
<g>
	<g>
		<path d="M459.975,99.977c-2.211,0-4,1.79-4,4c0,2.211,1.789,4,4,4c19.851,0,35.998,16.148,35.998,35.999c0,2.211,1.789,4,4,4
			c2.21,0,3.999-1.789,3.999-4.001C503.972,119.714,484.232,99.977,459.975,99.977z"/>
	</g>
</g>
<g>
	<g>
		<path d="M379.979,59.981c-2.211,0-3.999,1.789-3.999,4v23.998c0,2.211,1.788,4,3.999,4s4-1.789,4-3.999V63.981
			C383.979,61.77,382.19,59.981,379.979,59.981z"/>
	</g>
</g>
<g>
	<g>
		<path d="M459.975,115.977c-2.211,0-4,1.789-4,4s1.789,4,4,4c11.03,0,19.999,8.972,19.999,19.999c0,2.211,1.789,4,4,4
			s3.999-1.789,3.999-4C487.973,128.539,475.412,115.977,459.975,115.977z"/>
	</g>
</g>
<g>
	<g>
		<path d="M483.974,139.977c-2.211,0-4,1.789-4,4v327.982c0,2.211,1.789,4,4,4s3.999-1.789,3.999-4V143.977
			C487.973,141.766,486.185,139.977,483.974,139.977z"/>
	</g>
</g>
<g>
	<g>
		<path d="M499.973,139.977c-2.211,0-4,1.789-4,4v327.982c0,2.211,1.789,4,4,4c2.21,0,3.999-1.789,3.999-4V143.977
			C503.972,141.766,502.183,139.977,499.973,139.977z"/>
	</g>
</g>
<g>
	<g>
		<path d="M507.972,467.96h-31.998c-2.211,0-4,1.788-4,3.999s1.789,4,4,4h31.998c2.211,0,4-1.789,4-4S510.183,467.96,507.972,467.96
			z"/>
	</g>
</g>
<g>
	<g>
		<path d="M507.972,467.96c-2.211,0-4,1.788-4,3.999v23.999c0,2.211,1.789,4,4,4s4-1.789,4-4v-23.999
			C511.972,469.748,510.183,467.96,507.972,467.96z"/>
	</g>
</g>
<g>
	<g>
		<path d="M507.972,491.958h-31.998c-2.211,0-4,1.789-4,4s1.789,4,4,4h31.998c2.211,0,4-1.789,4-4S510.183,491.958,507.972,491.958z
			"/>
	</g>
</g>
<g>
	<g>
		<path d="M475.974,467.96c-2.211,0-4,1.788-4,3.999v23.999c0,2.211,1.789,4,4,4s4-1.789,4-4v-23.999
			C479.974,469.748,478.185,467.96,475.974,467.96z"/>
	</g>
</g>
<g>
	<g>
		<path d="M459.975,131.977H355.98c-2.21,0-3.999,1.789-3.999,4s1.789,4,3.999,4h103.995c2.211,0,3.999-1.789,3.999-4
			S462.186,131.977,459.975,131.977z"/>
	</g>
</g>
<g>
	<g>
		<path d="M459.975,131.976c-2.211,0-4,1.789-4,4s1.789,4,4,4c2.203,0,3.999,1.793,3.999,4c0,2.211,1.789,4,4,4s4-1.789,4-4
			C471.974,137.359,466.591,131.976,459.975,131.976z"/>
	</g>
</g>
<g>
	<g>
		<path d="M467.974,139.977c-2.211,0-4,1.789-4,4v143.991c0,2.211,1.789,4,4,4s4-1.789,4-3.999V143.977
			C471.974,141.766,470.185,139.977,467.974,139.977z"/>
	</g>
</g>
<g>
	<g>
		<path d="M475.974,259.97h-8c-2.211,0-4,1.789-4,4s1.789,4,4,4h8c2.211,0,4-1.789,4-4S478.185,259.97,475.974,259.97z"/>
	</g>
</g>
<g>
	<g>
		<path d="M475.974,283.969h-8c-2.211,0-4,1.788-4,3.999s1.789,4,4,4h8c2.211,0,4-1.789,4-4S478.185,283.969,475.974,283.969z"/>
	</g>
</g>
<g>
	<g>
		<path d="M451.975,147.976H355.98c-2.21,0-3.999,1.789-3.999,4s1.789,4,3.999,4h95.995c2.211,0,4-1.789,4-4
			S454.186,147.976,451.975,147.976z"/>
	</g>
</g>
<g>
	<g>
		<path d="M435.976,163.975H355.98c-2.21,0-3.999,1.789-3.999,4s1.789,4,3.999,4h79.996c2.211,0,4-1.789,4-4
			S438.187,163.975,435.976,163.975z"/>
	</g>
</g>
<g>
	<g>
		<path d="M451.975,147.976c-2.21,0-3.999,1.789-3.999,4v239.988c0,2.211,1.789,3.999,3.999,3.999c2.211,0,4-1.789,4-4V151.976
			C455.975,149.765,454.186,147.976,451.975,147.976z"/>
	</g>
</g>
<g>
	<g>
		<path d="M475.974,419.962h-51.997v-23.999h51.997c2.211,0,4-1.788,4-3.999s-1.789-4-4-4h-55.997c-2.211,0-4,1.789-4,4v31.998
			c0,2.211,1.789,4,4,4h55.997c2.211,0,4-1.789,4-4S478.185,419.962,475.974,419.962z"/>
	</g>
</g>
<g>
	<g>
		<path d="M467.974,299.969c-2.211,0-4,1.789-4,4v87.995c0,2.211,1.789,3.999,4,3.999s4-1.789,4-3.999v-87.995
			C471.974,301.758,470.185,299.969,467.974,299.969z"/>
	</g>
</g>
<g>
	<g>
		<path d="M491.973,483.959c-2.211,0-4,1.789-4,4v8.03c0,2.211,1.789,4,4,4s4-1.789,4-4v-8.03
			C495.973,485.748,494.184,483.959,491.973,483.959z"/>
	</g>
</g>
<g>
	<g>
		<path d="M475.974,403.963h-39.998c-2.211,0-4,1.789-4,4s1.789,4,4,4h39.998c2.211,0,4-1.789,4-4S478.185,403.963,475.974,403.963z
			"/>
	</g>
</g>
<g>
	<g>
		<path d="M435.976,163.975c-2.211,0-4,1.789-4,4v183.99c0,2.211,1.789,4,4,4s4-1.789,4-4v-183.99
			C439.976,165.764,438.187,163.975,435.976,163.975z"/>
	</g>
</g>
<g>
	<g>
		<path d="M443.976,347.965h-8c-2.211,0-4,1.789-4,4s1.789,4,4,4h8c2.211,0,4-1.789,4-4S446.187,347.965,443.976,347.965z"/>
	</g>
</g>
<g>
	<g>
		<path d="M443.976,323.966h-8c-2.211,0-4,1.789-4,4s1.789,4,4,4h8c2.211,0,4-1.789,4-4S446.187,323.966,443.976,323.966z"/>
	</g>
</g>
<g>
	<g>
		<path d="M419.977,179.974H355.98c-2.21,0-3.999,1.789-3.999,4s1.789,4,3.999,4h63.997c2.211,0,4-1.789,4-4
			S422.188,179.974,419.977,179.974z"/>
	</g>
</g>
<g>
	<g>
		<path d="M419.977,179.974c-2.211,0-4,1.789-4,4v83.996h-3.999c-2.211,0-4,1.789-4,4v15.998c0,2.211,1.789,4,4,4
			c2.21,0,3.999-1.789,3.999-4v-11.999h4c2.211,0,4-1.789,4-3.999v-87.996C423.977,181.763,422.188,179.974,419.977,179.974z"/>
	</g>
</g>
<g>
	<g>
		<path d="M427.976,283.969h-15.998c-2.211,0-4,1.788-4,3.999s1.789,4,4,4h15.998c2.211,0,4-1.789,4-4
			S430.187,283.969,427.976,283.969z"/>
	</g>
</g>
<g>
	<g>
		<path d="M427.976,267.97h-7.999c-2.211,0-4,1.789-4,4c0,2.21,1.789,3.999,4,3.999h7.999c2.211,0,4-1.789,4-3.999
			C431.976,269.759,430.187,267.97,427.976,267.97z"/>
	</g>
</g>
<g>
</g>
<g>
</g>
<g>
</g>
<g>
</g>
<g>
</g>
<g>
</g>
<g>
</g>
<g>
</g>
<g>
</g>
<g>
</g>
<g>
</g>
<g>
</g>
<g>
</g>
<g>
</g>
<g>
</g>
</svg>
