<?xml version="1.0" encoding="iso-8859-1"?>
<!-- Generator: Adobe Illustrator 19.0.0, SVG Export Plug-In . SVG Version: 6.00 Build 0)  -->
<svg version="1.1" id="Capa_1" xmlns="http://www.w3.org/2000/svg" xmlns:xlink="http://www.w3.org/1999/xlink" x="0px" y="0px"
	 viewBox="0 0 60.001 60.001" style="enable-background:new 0 0 60.001 60.001;" xml:space="preserve">
<g>
	<g>
		<path d="M48.109,44.202c0.192-0.708,0.354-1.431,0.486-2.167c0.003-0.017,0.005-0.035,0.008-0.052
			c0.126-0.719,0.224-1.449,0.289-2.19c0.001-0.017,0.002-0.035,0.003-0.052c0.063-0.737,0.097-1.484,0.097-2.241
			c0-2.766-0.44-5.483-1.311-8.085l0.624-3.33c0.022-0.116,0.04-0.231,0.058-0.348l0.034-0.22c0-0.003-0.001-0.006,0-0.009
			c0.998-5.773,0.773-11.8-0.677-17.477c-0.521-3.47-3.287-6.215-6.759-6.712c-3.189-0.901-6.506-1.333-9.924-1.311
			C31.023,0.008,31.009,0,30.993,0c-0.023,0-0.042,0.011-0.064,0.013c-3.215,0.03-6.517,0.458-9.89,1.306
			c-3.48,0.49-6.254,3.24-6.775,6.715c-0.665,2.652-0.251,5.823,0.187,9.18c0.229,1.764,0.468,3.587,0.525,5.283
			c0.104,3.089-0.242,6.08-1.029,8.891c-0.267,0.952-0.695,1.97-1.149,3.047c-0.887,2.104-1.804,4.279-1.804,6.566
			c0,11.72,7.089,19,18.5,19c8.027,0,14.936-5.628,17.922-13.642c0.001-0.004,0.005-0.006,0.006-0.01
			c0.004-0.011,0.007-0.023,0.011-0.034c0.251-0.677,0.474-1.371,0.667-2.08C48.103,44.224,48.106,44.213,48.109,44.202z
			 M46.905,39.539c-0.02,0.239-0.061,0.473-0.088,0.711c-0.049,0.427-0.095,0.855-0.166,1.273c-0.054,0.316-0.13,0.626-0.197,0.938
			c-0.07,0.327-0.132,0.658-0.215,0.978c-0.095,0.366-0.213,0.725-0.326,1.086c-0.07,0.225-0.134,0.453-0.211,0.674
			c-1.102,0.325-2.638,0.605-3.268-0.097c-1.714-1.906,1.333-9.288,3.581-14.263c0.047,0.158,0.099,0.315,0.142,0.475
			c0.064,0.235,0.126,0.471,0.183,0.709c0.088,0.368,0.164,0.738,0.234,1.11c0.044,0.233,0.09,0.465,0.127,0.699
			c0.064,0.405,0.11,0.814,0.153,1.222c0.021,0.201,0.049,0.401,0.065,0.603c0.047,0.611,0.076,1.225,0.076,1.842
			C46.993,38.188,46.962,38.868,46.905,39.539z M30.993,20c-0.552,0-1-0.448-1-1v-8c0-0.552,0.448-1,1-1s1,0.448,1,1v8
			C31.993,19.552,31.545,20,30.993,20z M16.589,28.664c1.044,4.663,1.804,10.081,0.038,11.563c-0.816,0.685-2.279,0.329-3.546-0.2
			c0.215-1.593,0.903-3.237,1.571-4.833c0.474-1.131,0.921-2.199,1.22-3.268c0.188-0.671,0.343-1.354,0.484-2.043
			c0.039-0.19,0.074-0.38,0.109-0.571C16.505,29.096,16.553,28.882,16.589,28.664z M29.493,58c-9.955,0-16.027-5.912-16.458-15.864
			c0.876,0.302,1.681,0.469,2.398,0.469c0.979,0,1.808-0.282,2.479-0.846c3.248-2.725,1.464-11.068-0.96-19.697
			c-0.079-1.68-0.3-3.419-0.519-5.106c-0.415-3.183-0.807-6.188-0.219-8.477c0.009-0.035,0.016-0.071,0.021-0.107
			c0.376-2.638,2.484-4.726,5.125-5.078c0.038-0.005,0.075-0.013,0.112-0.021c2.904-0.733,5.745-1.128,8.52-1.227v6.14
			c-1.161,0.414-2,1.514-2,2.816v8c0,1.302,0.839,2.402,2,2.816V27c0,0.553,0.447,1,1,1s1-0.447,1-1v-5.184
			c1.161-0.414,2-1.514,2-2.816v-8c0-1.302-0.839-2.402-2-2.816V2.026c2.92,0.058,5.758,0.46,8.489,1.238
			c0.047,0.013,0.095,0.022,0.143,0.029c2.641,0.353,4.748,2.44,5.125,5.078c0.006,0.036,0.013,0.072,0.021,0.107
			c1.383,5.385,1.605,11.103,0.674,16.584c-0.316,0.739-0.744,1.666-1.234,2.725c-3.763,8.145-6.921,15.7-4.268,18.653
			c0.657,0.731,1.592,1.098,2.794,1.098c0.326,0,0.678-0.036,1.044-0.09C41.789,53.734,36.061,58,29.493,58z"/>
		<path d="M29.993,39c-2.757,0-5,2.243-5,5s2.243,5,5,5s5-2.243,5-5S32.75,39,29.993,39z M29.993,47c-1.654,0-3-1.346-3-3
			s1.346-3,3-3s3,1.346,3,3S31.647,47,29.993,47z"/>
	</g>
</g>
<g>
</g>
<g>
</g>
<g>
</g>
<g>
</g>
<g>
</g>
<g>
</g>
<g>
</g>
<g>
</g>
<g>
</g>
<g>
</g>
<g>
</g>
<g>
</g>
<g>
</g>
<g>
</g>
<g>
</g>
</svg>
