<?xml version="1.0" encoding="iso-8859-1"?>
<!-- Generator: Adobe Illustrator 19.0.0, SVG Export Plug-In . SVG Version: 6.00 Build 0)  -->
<svg version="1.1" id="Layer_1" xmlns="http://www.w3.org/2000/svg" xmlns:xlink="http://www.w3.org/1999/xlink" x="0px" y="0px"
	 viewBox="0 0 512 512" style="enable-background:new 0 0 512 512;" xml:space="preserve">
<g>
	<g>
		<g>
			<path d="M409.602,0h-307.2C78.876,0,59.735,19.14,59.735,42.667v264.447c0,0.029-0.004,0.056-0.004,0.085
				s0.004,0.056,0.004,0.085v162.051c0,23.526,19.14,42.667,42.667,42.667h307.2c23.526,0,42.667-19.14,42.667-42.667V42.667
				C452.269,19.14,433.129,0,409.602,0z M102.402,17.067h307.2c14.114,0,25.6,11.486,25.6,25.6v332.8h-230.4
				c-6.797,0-13.451-1.009-19.883-2.997l44.411-51.14c8.989,1.939,17.939,2.937,26.671,2.937c70.579,0,128-57.421,128-128
				s-57.421-128-128-128s-128,57.421-128,128c0,41.12,20.096,79.8,53.181,103.723l-40.661,30.155
				c-2.62-7.337-3.991-15.12-3.991-22.946c0-4.71-3.814-8.533-8.533-8.533H76.802V42.667
				C76.802,28.553,88.288,17.067,102.402,17.067z M141.813,350.43c0.097-0.065,0.186-0.139,0.28-0.208l58.984-43.747
				c0.101-0.072,0.2-0.145,0.298-0.221l44.504-33.007c0.188-0.145,0.418-0.222,0.631-0.222c0.256,0,0.521,0.102,0.708,0.29
				c0.358,0.367,0.393,0.939,0.29,1.067L145.629,391.698c-4.471,5.572-10.795,8.969-17.357,9.336
				c-5.18,0.247-9.557-1.34-12.766-4.54c-3.209-3.208-4.821-7.74-4.548-12.757c0.367-6.571,3.772-12.902,9.097-17.169
				L141.813,350.43z M259.293,261.257l-0.009-0.008c-6.528-6.519-16.862-7.074-23.817-1.519l-39.778,29.501
				c-31.356-20.392-50.621-55.51-50.621-92.964c0-61.167,49.766-110.933,110.933-110.933S366.935,135.1,366.935,196.267
				S317.169,307.2,256.002,307.2c-4.475,0-9.024-0.304-13.616-0.904l18.23-20.992C266.368,278.119,265.804,267.768,259.293,261.257z
				 M409.602,494.933h-307.2c-14.114,0-25.6-11.486-25.6-25.6V315.732H119.9c0.868,8.584,3.055,17.011,6.432,24.936l-16.696,12.382
				c-9.361,7.492-15.087,18.33-15.71,29.747c-0.546,9.924,2.833,19.072,9.515,25.762c6.221,6.212,14.566,9.574,23.689,9.574
				c0.691,0,1.382-0.017,2.082-0.06c11.409-0.631,22.238-6.357,29.517-15.445l14.191-16.341c10.175,4.145,20.869,6.245,31.883,6.245
				h230.4v76.8C435.202,483.448,423.716,494.933,409.602,494.933z"/>
			<path d="M102.402,51.2c4.719,0,8.533-3.823,8.533-8.533c0-4.71-3.814-8.533-8.533-8.533s-8.533,3.823-8.533,8.533
				C93.869,47.377,97.683,51.2,102.402,51.2z"/>
			<path d="M409.602,51.2c4.719,0,8.533-3.823,8.533-8.533c0-4.71-3.814-8.533-8.533-8.533c-4.719,0-8.533,3.823-8.533,8.533
				C401.069,47.377,404.883,51.2,409.602,51.2z"/>
			<path d="M298.669,196.267c0-23.526-19.14-42.667-42.667-42.667s-42.667,19.14-42.667,42.667c0,23.526,19.14,42.667,42.667,42.667
				S298.669,219.793,298.669,196.267z M256.002,221.867c-14.114,0-25.6-11.486-25.6-25.6s11.486-25.6,25.6-25.6
				c14.114,0,25.6,11.486,25.6,25.6S270.116,221.867,256.002,221.867z"/>
			<path d="M130.81,389.725c4.719,0,8.533-3.823,8.533-8.533s-3.814-8.533-8.533-8.533c-4.71,0-8.533,3.823-8.533,8.533
				S126.1,389.725,130.81,389.725z"/>
			<path d="M264.535,110.933c0-4.71-3.814-8.533-8.533-8.533c-51.755,0-93.867,42.112-93.867,93.867c0,4.71,3.814,8.533,8.533,8.533
				s8.533-3.823,8.533-8.533c0-42.342,34.449-76.8,76.8-76.8C260.721,119.467,264.535,115.644,264.535,110.933z"/>
			<path d="M315.735,409.6h-51.2c-4.719,0-8.533,3.823-8.533,8.533v51.2c0,4.71,3.814,8.533,8.533,8.533h51.2
				c4.719,0,8.533-3.823,8.533-8.533v-51.2C324.269,413.423,320.454,409.6,315.735,409.6z M307.202,460.8h-34.133v-34.133h34.133
				V460.8z"/>
			<path d="M401.069,409.6h-51.2c-4.719,0-8.533,3.823-8.533,8.533v51.2c0,4.71,3.814,8.533,8.533,8.533h51.2
				c4.719,0,8.533-3.823,8.533-8.533v-51.2C409.602,413.423,405.788,409.6,401.069,409.6z M392.535,460.8h-34.133v-34.133h34.133
				V460.8z"/>
			<path d="M221.869,418.133h-42.667c-4.719,0-8.533,3.823-8.533,8.533s3.814,8.533,8.533,8.533h42.667
				c4.719,0,8.533-3.823,8.533-8.533S226.588,418.133,221.869,418.133z"/>
			<path d="M221.869,452.267h-42.667c-4.719,0-8.533,3.823-8.533,8.533s3.814,8.533,8.533,8.533h42.667
				c4.719,0,8.533-3.823,8.533-8.533S226.588,452.267,221.869,452.267z"/>
		</g>
	</g>
</g>
<g>
</g>
<g>
</g>
<g>
</g>
<g>
</g>
<g>
</g>
<g>
</g>
<g>
</g>
<g>
</g>
<g>
</g>
<g>
</g>
<g>
</g>
<g>
</g>
<g>
</g>
<g>
</g>
<g>
</g>
</svg>
