<?xml version="1.0" encoding="iso-8859-1"?>
<!-- Generator: Adobe Illustrator 18.1.1, SVG Export Plug-In . SVG Version: 6.00 Build 0)  -->
<svg version="1.1" id="Capa_1" xmlns="http://www.w3.org/2000/svg" xmlns:xlink="http://www.w3.org/1999/xlink" x="0px" y="0px"
	 viewBox="0 0 81.852 81.852" style="enable-background:new 0 0 81.852 81.852;" xml:space="preserve">
<g>
	<g>
		<g>
			<path style="fill:#010002;" d="M17.447,64.439H51.11c0.73,0,1.313-2.412,1.421-3.769H16.023
				C16.133,62.027,16.713,64.439,17.447,64.439z"/>
		</g>
		<g>
			<path style="fill:#010002;" d="M57.705,64.439h15.364c0.734,0,1.321-2.412,1.424-3.769H56.277
				C56.381,62.027,56.968,64.439,57.705,64.439z"/>
		</g>
		<g>
			<path style="fill:#010002;" d="M10.003,22.838v-4.083c0-0.744-0.601-1.342-1.342-1.342H1.342C0.601,17.413,0,18.014,0,18.755
				c0,0.744,0.601,1.342,1.342,1.342h5.977v9.012H1.342v2.094h5.977v2.613H1.342v14.638h5.977v2.609H1.342v2.094h5.977v9.931
				c0,0.741,0.601,1.342,1.342,1.342c0.741,0,1.342-0.601,1.342-1.342v-3.658h71.849V22.835L10.003,22.838L10.003,22.838z
				 M41.844,46.627H15.98c-1.006,0-1.832-0.82-1.832-1.829s0.82-1.832,1.832-1.832h25.864c1.006,0,1.832,0.82,1.832,1.832
				C43.676,45.811,42.85,46.627,41.844,46.627z M41.844,39.308H15.98c-1.006,0-1.832-0.82-1.832-1.829
				c0-1.013,0.82-1.832,1.832-1.832h25.864c1.006,0,1.832,0.82,1.832,1.832C43.676,38.489,42.85,39.308,41.844,39.308z
				 M62.612,55.392c-7.988,0-14.469-6.478-14.469-14.466S54.624,26.46,62.612,26.46c7.984,0,14.462,6.478,14.462,14.466
				S70.596,55.392,62.612,55.392z"/>
		</g>
		<g>
			<path style="fill:#010002;" d="M70.31,32.458c-2.426,1.396-4.205,2.845-5.526,4.313c-0.605-0.319-1.285-0.515-2.018-0.54
				c0.229-1.918,0.981-4.162,2.788-7.09c-1.965,0-3.933,0-5.891,0c-0.408,3.486-0.14,5.909,0.447,7.805
				c-0.608,0.383-1.117,0.898-1.503,1.507c-1.542-1.124-3.096-2.702-4.706-4.928c-0.816,1.807-1.614,3.021-2.97,4.062
				c2.795,2.086,5.039,3.085,6.986,3.529c0.032,0.737,0.222,1.417,0.551,2.026c-1.782,0.762-4.116,1.224-7.537,1.124
				c1.636,2.083,3.099,3.6,3.98,5.128c2.423-1.396,4.202-2.842,5.519-4.309c0.608,0.319,1.288,0.519,2.022,0.537
				c-0.229,1.922-0.981,4.166-2.788,7.09c1.965,0,3.933,0,5.891,0c0.408-3.486,0.14-5.909-0.447-7.805
				c0.608-0.383,1.117-0.902,1.5-1.51c1.542,1.12,3.099,2.706,4.71,4.928c0.812-1.804,1.61-3.021,2.967-4.062
				c-2.791-2.086-5.035-3.081-6.982-3.529c-0.036-0.734-0.222-1.417-0.555-2.026c1.786-0.759,4.119-1.224,7.537-1.127
				C72.647,35.504,71.187,33.983,70.31,32.458z M62.605,42.4c-0.812,0-1.467-0.662-1.467-1.474s0.662-1.474,1.467-1.474
				c0.82,0,1.474,0.662,1.474,1.474S63.417,42.4,62.605,42.4z"/>
		</g>
	</g>
</g>
<g>
</g>
<g>
</g>
<g>
</g>
<g>
</g>
<g>
</g>
<g>
</g>
<g>
</g>
<g>
</g>
<g>
</g>
<g>
</g>
<g>
</g>
<g>
</g>
<g>
</g>
<g>
</g>
<g>
</g>
</svg>
